<?xml version="1.0" encoding="UTF-8" standalone="no"?>
<!-- Created with Inkscape (http://www.inkscape.org/) -->
<svg
   xmlns:dc="http://purl.org/dc/elements/1.1/"
   xmlns:cc="http://web.resource.org/cc/"
   xmlns:rdf="http://www.w3.org/1999/02/22-rdf-syntax-ns#"
   xmlns:svg="http://www.w3.org/2000/svg"
   xmlns="http://www.w3.org/2000/svg"
   xmlns:sodipodi="http://sodipodi.sourceforge.net/DTD/sodipodi-0.dtd"
   xmlns:inkscape="http://www.inkscape.org/namespaces/inkscape"
   height="200"
   id="svg2801"
   inkscape:export-filename="/home/Krug/Projekte/Icon-Sets/set2/png/8a.png"
   inkscape:export-xdpi="72.000000"
   inkscape:export-ydpi="72.000000"
   inkscape:version="0.45.1"
   sodipodi:docbase="/media/sda3/workspace/hmm2000/src/sprites"
   sodipodi:docname="deamon.svg"
   sodipodi:version="0.32"
   width="180"
   inkscape:output_extension="org.inkscape.output.svg.inkscape"
   version="1.0">
  <metadata
     id="metadata3">
    <rdf:RDF>
      <cc:Work
         rdf:about="">
        <dc:title>people</dc:title>
        <dc:description />
        <dc:subject>
          <rdf:Bag>
            <rdf:li>icon</rdf:li>
            <rdf:li>people</rdf:li>
          </rdf:Bag>
        </dc:subject>
        <dc:publisher>
          <cc:Agent
             rdf:about="http://www.openclipart.org/">
            <dc:title>Open Clip Art Library</dc:title>
          </cc:Agent>
        </dc:publisher>
        <dc:creator>
          <cc:Agent>
            <dc:title>Juliane Krug</dc:title>
          </cc:Agent>
        </dc:creator>
        <dc:rights>
          <cc:Agent>
            <dc:title>Juliane Krug</dc:title>
          </cc:Agent>
        </dc:rights>
        <dc:date />
        <dc:format>image/svg+xml</dc:format>
        <dc:type
           rdf:resource="http://purl.org/dc/dcmitype/StillImage" />
        <cc:license
           rdf:resource="http://web.resource.org/cc/PublicDomain" />
        <dc:language>en</dc:language>
      </cc:Work>
      <cc:License
         rdf:about="http://web.resource.org/cc/PublicDomain">
        <cc:permits
           rdf:resource="http://web.resource.org/cc/Reproduction" />
        <cc:permits
           rdf:resource="http://web.resource.org/cc/Distribution" />
        <cc:permits
           rdf:resource="http://web.resource.org/cc/DerivativeWorks" />
      </cc:License>
    </rdf:RDF>
  </metadata>
  <defs
     id="defs2803">
    <linearGradient
       id="linearGradient4384">
      <stop
         id="stop4385"
         offset="0.0000000"
         style="stop-color:#ffffff;stop-opacity:0.77513230;" />
      <stop
         id="stop4386"
         offset="1.0000000"
         style="stop-color:#ffffff;stop-opacity:0.0000000;" />
    </linearGradient>
    <linearGradient
       id="linearGradient4376">
      <stop
         id="stop4377"
         offset="0.0000000"
         style="stop-color:#000000;stop-opacity:0.52645504;" />
      <stop
         id="stop4378"
         offset="1.0000000"
         style="stop-color:#000000;stop-opacity:0.0000000;" />
    </linearGradient>
    <linearGradient
       id="linearGradient4362">
      <stop
         id="stop4363"
         offset="0.0000000"
         style="stop-color:#ffffff;stop-opacity:0.66666669;" />
      <stop
         id="stop4364"
         offset="1.0000000"
         style="stop-color:#ffffff;stop-opacity:0.0000000;" />
    </linearGradient>
    <linearGradient
       id="linearGradient4358">
      <stop
         id="stop4359"
         offset="0"
         style="stop-color:#000;stop-opacity:1;" />
      <stop
         id="stop4360"
         offset="1"
         style="stop-color:#fff;stop-opacity:1;" />
    </linearGradient>
    <linearGradient
       id="linearGradient2180">
      <stop
         style="stop-color:#b0b0b0;stop-opacity:1.0000000;"
         offset="0.0000000"
         id="stop2181" />
      <stop
         style="stop-color:#e8e8e9;stop-opacity:1.0000000;"
         offset="1.0000000"
         id="stop2182" />
    </linearGradient>
    <linearGradient
       id="linearGradient2199">
      <stop
         style="stop-color:#0163ff;stop-opacity:0.10112359;"
         offset="0.0000000"
         id="stop2200" />
      <stop
         style="stop-color:#ffffff;stop-opacity:0.0000000;"
         offset="1.0000000"
         id="stop2201" />
    </linearGradient>
  </defs>
  <sodipodi:namedview
     bordercolor="#666666"
     borderopacity="1.0"
     id="base"
     inkscape:cx="113.54778"
     inkscape:cy="112.9122"
     inkscape:pageopacity="0.0"
     inkscape:pageshadow="2"
     inkscape:window-height="828"
     inkscape:window-width="1440"
     inkscape:window-x="0"
     inkscape:window-y="47"
     inkscape:zoom="2.5526555"
     pagecolor="#ffffff"
     width="180px"
     height="200px"
     inkscape:current-layer="svg2801"
     showguides="true"
     inkscape:guide-bbox="true" />
  <path
     style="fill:#ff0000;fill-rule:evenodd;stroke:#000000;stroke-width:2.4000001;stroke-linecap:butt;stroke-linejoin:miter;stroke-miterlimit:4;stroke-dasharray:none;stroke-opacity:1"
     d="M 42.597314,129.4852 C 44.677713,128.96222 46.434881,131.12425 47.298301,134.57793 C 48.227242,138.2937 45.131113,138.64547 42.597314,139.27892 C 40.780852,139.73304 37.933229,139.28814 36.329332,138.88717 C 34.035094,138.31361 32.425988,137.33432 30.844847,135.75318 C 29.132433,134.04077 27.465457,132.81432 26.14386,131.05219 C 24.779301,129.23278 23.918503,127.2435 23.401618,125.17596 C 22.898808,123.16472 21.937718,121.27911 21.442873,119.29973 C 20.976567,117.4345 21.051124,115.43514 21.051124,113.42349 C 21.051124,111.39823 21.108093,109.34213 20.659375,107.54726 C 20.232304,105.83897 20.659375,103.4423 20.659375,101.67102 C 20.659375,98.547642 16.241381,99.837406 13.607895,100.49578 C 8.012154,101.89471 15.2929,95.255531 16.741886,93.444298 C 17.957907,91.924272 18.539792,89.349511 19.875877,87.568064 C 22.693913,83.810683 23.372049,85.135338 26.927358,89.13506 C 29.520486,92.052328 31.808415,94.799615 33.978838,96.970038 C 35.89307,98.884269 37.145629,100.47938 34.762336,101.67102 C 33.033637,102.53537 30.657633,101.63358 28.886102,101.27928 C 25.61827,100.62571 27.359848,103.83348 27.710856,105.58851 C 28.10949,107.58168 27.99237,109.67728 28.886102,111.46475 C 29.882558,113.45766 30.26736,115.40251 31.236596,117.34098 C 32.321302,119.51039 34.987579,119.13322 36.72108,120.86672 C 38.275887,122.42153 40.331966,123.67282 41.813816,124.78421 C 42.628471,125.3952 44.947807,131.43218 44.947807,131.83569"
     id="path17952" />
  <path
     style="fill:#ffffff;fill-rule:evenodd;stroke:#000000;stroke-width:2.27600002;stroke-linecap:butt;stroke-linejoin:miter;stroke-miterlimit:4;stroke-dasharray:none;stroke-opacity:1"
     d="M 78.22501,72.599232 C 79.69951,72.20938 83.16869,70.949881 85.34893,70.008239 C 87.31641,69.158491 89.0738,68.237541 90.97308,67.417245 C 92.85987,66.602345 94.91765,65.859998 96.97218,65.150126 C 98.97914,64.456684 100.74337,64.007165 102.59632,63.206882 C 104.65649,62.317097 105.54927,60.993421 106.7207,59.644266 C 107.43198,58.825066 106.56777,55.553277 106.34575,54.786154 C 105.76118,52.766345 103.82776,51.683959 103.34621,49.604168 C 102.96935,47.976531 101.24153,45.644266 100.34667,44.098307 C 98.89443,41.589434 98.16625,39.535863 96.22229,37.29695 C 94.80383,35.663274 93.017,34.382083 90.59813,34.382083 C 88.43056,34.382083 86.17387,35.915023 84.97399,37.29695 C 83.32791,39.192786 82.34939,41.313943 82.34939,43.774433 C 82.34939,48.027445 81.75811,45.941829 80.84961,42.80281 C 80.35334,41.088125 80.47467,39.178655 80.47467,37.29695 C 80.47467,35.466563 78.9749,34.169786 78.9749,32.114965 C 78.9749,30.480633 80.44414,29.226467 81.97444,27.904601 C 83.44773,26.631985 84.66401,25.771361 86.47377,24.989734 C 88.46773,24.128543 89.76724,24.018111 92.09791,24.018111 C 94.15045,24.018111 95.72032,24.341985 97.72206,24.341985 C 100.47477,24.341985 107.60405,26.546899 109.3453,28.552349 C 111.12218,30.59883 112.34484,33.403079 112.34484,36.001454 C 112.34484,38.012548 114.06372,39.997223 114.5945,41.831189 C 115.2526,44.105038 115.82537,46.407932 116.46922,48.632545 C 117.13101,50.919139 117.96899,53.316256 117.96899,55.757777 C 117.96899,57.875204 119.34921,60.423369 119.84371,62.559133 C 120.34828,64.738386 120.96854,67.325198 120.96854,69.684365 C 120.96854,71.556029 118.41943,72.874195 116.84417,73.894728 C 115.18993,74.966418 113.32385,75.190225 111.22001,75.190225 C 109.34373,75.190225 107.64668,76.161847 105.59587,76.161847 C 102.78358,76.161847 101.34204,77.18938 99.22183,78.105092 C 97.19639,78.979878 95.13194,79.223758 93.22274,80.048337 C 91.49755,80.793443 89.57586,80.696085 87.59859,80.696085 C 84.25015,80.696085 82.74993,81.69313 89.09837,80.696085"
     id="path17918" />
  <path
     style="fill:#ff0000;fill-rule:evenodd;stroke:#000000;stroke-width:2.27600002;stroke-linecap:butt;stroke-linejoin:miter;stroke-miterlimit:4;stroke-dasharray:none;stroke-opacity:1"
     d="M 82.34939,28.552349 C 80.32753,28.552349 78.59995,30.800729 78.59995,33.086586 C 78.59995,34.739132 78.4846,36.25061 78.9749,37.944699 C 79.52238,39.836349 79.96332,41.035993 80.47467,42.80281 C 81.01317,44.663434 82.72433,46.708964 82.72433,43.774433 C 82.72433,42.230795 83.06952,39.990728 83.47421,38.592447 C 84.05154,36.597675 85.06276,35.496473 87.22364,35.029832 C 90.08044,34.412912 90.97308,34.221278 90.97308,31.467216 C 90.97308,29.371471 89.69039,28.092117 87.97353,26.609104 C 85.96374,24.873046 83.63636,26.699547 82.34939,28.552349 z "
     id="path17920" />
  <path
     d="M 66.307916,110.50443 C 71.057317,115.688 74.07966,124.97521 80.772,124.97521 C 87.24846,123.17536 88.11199,107.76866 88.97552,104.45695 C 81.63553,109.49652 74.07967,112.37628 66.307916,110.50443 z "
     id="path9383"
     sodipodi:nodetypes="cccc"
     style="fill:#ff0000;fill-opacity:1;fill-rule:evenodd;stroke:#000000;stroke-width:3.75;stroke-linecap:round;stroke-linejoin:round;stroke-miterlimit:4;stroke-opacity:1" />
  <path
     d="M 211.21884 70.290855 A 60.94183 57.825485 0 1 1  89.335178,70.290855 A 60.94183 57.825485 0 1 1  211.21884 70.290855 z"
     id="path3713"
     sodipodi:cx="150.27701"
     sodipodi:cy="70.290855"
     sodipodi:rx="60.94183"
     sodipodi:ry="57.825485"
     sodipodi:type="arc"
     style="fill:#ff0000;fill-opacity:1;fill-rule:evenodd;stroke:#000000;stroke-width:8.50416374;stroke-linecap:round;stroke-linejoin:round;stroke-miterlimit:4;stroke-opacity:1"
     transform="matrix(0.440859,0,0,0.441062,4.25068,54.08246)" />
  <path
     d="M 37.309545,137.3111 C 36.918904,162.50736 101.54831,165.38872 101.39201,137.3111 C 102.93679,114.98236 91.83156,102.28666 89.07189,104.44513 C 87.67065,105.5411 87.15001,129.88089 77.68208,124.28225 C 73.0792,121.56045 67.930742,111.10538 65.678135,110.75852 C 62.27906,110.23512 55.770312,107.48302 49.792598,102.33231 C 48.224305,100.98099 37.838994,114.8713 37.309545,137.3111 z "
     id="path4369"
     sodipodi:nodetypes="ccssssc"
     style="fill:#ff0000;fill-opacity:1;fill-rule:evenodd;stroke:#000000;stroke-width:3.75;stroke-linecap:round;stroke-linejoin:round;stroke-miterlimit:4;stroke-opacity:1" />
  <path
     style="fill:#ffffff;fill-rule:evenodd;stroke:#000000;stroke-width:2.58999991;stroke-linecap:butt;stroke-linejoin:miter;stroke-miterlimit:4;stroke-dasharray:none;stroke-opacity:1"
     d="M 61.226835,75.856971 C 59.752335,75.467119 56.28316,74.20762 54.102913,73.265978 C 52.135439,72.41623 50.378049,71.49528 48.478768,70.674984 C 46.591977,69.860084 44.534191,69.117737 42.479669,68.407865 C 40.472705,67.714423 38.708471,67.264904 36.855524,66.464621 C 34.795355,65.574836 33.902571,64.25116 32.731147,62.902005 C 32.019867,62.082805 32.884072,58.811016 33.106091,58.043893 C 33.690669,56.024084 35.624089,54.941698 36.105635,52.861907 C 36.482494,51.23427 38.210319,48.902005 39.10518,47.356046 C 40.557418,44.847173 41.2856,42.793602 43.229558,40.554689 C 44.648019,38.921013 46.434841,37.639822 48.853712,37.639822 C 51.021287,37.639822 53.277978,39.172762 54.477857,40.554689 C 56.123937,42.450525 57.102458,44.571682 57.102458,47.032172 C 57.102458,51.285184 57.693735,49.199568 58.602235,46.060549 C 59.098501,44.345864 58.977179,42.436394 58.977179,40.554689 C 58.977179,38.724302 60.476947,37.427525 60.476947,35.372704 C 60.476947,33.738372 59.007701,32.484206 57.477402,31.16234 C 56.004117,29.889724 54.787833,29.0291 52.97808,28.247473 C 50.984114,27.386282 49.68461,27.27585 47.353935,27.27585 C 45.301394,27.27585 43.731528,27.599724 41.72979,27.599724 C 38.977072,27.599724 31.8478,29.804638 30.106546,31.810088 C 28.329669,33.856569 27.107002,36.660818 27.107002,39.259193 C 27.107002,41.270287 25.388125,43.254962 24.857345,45.088928 C 24.199243,47.362777 23.626475,49.665671 22.982624,51.890284 C 22.320837,54.176878 21.482857,56.573995 21.482857,59.015516 C 21.482857,61.132943 20.10264,63.681108 19.608135,65.816872 C 19.103561,67.996125 18.483302,70.582937 18.483302,72.942104 C 18.483302,74.813768 21.032416,76.131934 22.60768,77.152467 C 24.261914,78.224157 26.127993,78.447964 28.231834,78.447964 C 30.108116,78.447964 31.805171,79.419586 33.855979,79.419586 C 36.668267,79.419586 38.109805,80.447119 40.230013,81.362831 C 42.255459,82.237617 44.319906,82.481497 46.229102,83.306076 C 47.954296,84.051182 49.875982,83.953824 51.853257,83.953824 C 55.201693,83.953824 56.70192,84.950869 50.35348,83.953824"
     id="path17928" />
  <path
     style="fill:#ff0000;fill-rule:evenodd;stroke:#000000;stroke-width:2.27600002;stroke-linecap:butt;stroke-linejoin:miter;stroke-miterlimit:4;stroke-dasharray:none;stroke-opacity:1"
     d="M 57.102458,31.810088 C 59.124314,31.810088 60.851891,34.058468 60.851891,36.344325 C 60.851891,37.996871 60.96725,39.508349 60.476947,41.202438 C 59.929466,43.094088 59.488529,44.293732 58.977179,46.060549 C 58.438676,47.921173 56.727513,49.966703 56.727513,47.032172 C 56.727513,45.488534 56.382325,43.248467 55.977634,41.850186 C 55.400301,39.855414 54.389086,38.754212 52.228201,38.287571 C 49.371408,37.670651 48.478768,37.479017 48.478768,34.724955 C 48.478768,32.62921 49.761455,31.349856 51.478313,29.866843 C 53.48811,28.130785 55.815482,29.957286 57.102458,31.810088 z "
     id="path17930" />
  <path
     style="fill:#000000;fill-rule:evenodd;stroke:#000000;stroke-width:0.48482075px;stroke-linecap:butt;stroke-linejoin:miter;stroke-opacity:1"
     d="M 63.302848,75.431582 C 62.540421,75.515615 61.520574,77.240864 60.653234,78.121348 C 59.940991,78.844383 59.584766,79.622658 59.279687,80.618467 C 59.064024,81.322417 61.095767,82.581166 61.625377,82.893322 C 62.575541,83.453358 63.438451,84.002275 64.31995,84.691479 C 65.032864,85.248875 66.213659,85.440239 66.992534,85.899314 C 67.849425,86.404374 68.783822,86.64071 69.665118,87.107149 C 70.755227,87.684106 71.506019,88.590553 72.436163,89.31779 C 73.442007,90.104216 74.378795,91.12969 74.453981,89.352389 C 74.509401,88.042151 74.681108,86.88198 74.801878,85.568409 C 74.898644,84.515958 74.873891,83.598272 74.691934,82.616803 C 74.49764,81.568793 74.465135,80.450022 74.265597,79.37374 C 74.087197,78.411464 72.698533,77.977711 71.810943,77.454557 C 70.982392,76.966202 69.875169,76.890954 69.083876,76.424559 C 68.446327,76.048781 66.910554,75.972572 66.193362,75.92807 C 64.875367,75.846288 63.10105,75.487771 61.972298,75.802065"
     id="path17932" />
  <path
     style="fill:#000000;fill-rule:evenodd;stroke:#000000;stroke-width:0.48482075px;stroke-linecap:butt;stroke-linejoin:miter;stroke-opacity:1"
     d="M 87.53746,72.562156 C 88.30441,72.574133 89.48194,74.195856 90.42822,74.990893 C 91.20529,75.64376 91.63312,76.385092 92.03047,77.347808 C 92.31137,78.028362 90.40697,79.472559 89.90905,79.833127 C 89.01574,80.480019 88.20827,81.107635 87.39548,81.876662 C 86.73812,82.498619 85.58055,82.800157 84.84829,83.33042 C 84.04268,83.913806 83.13464,84.236955 82.3011,84.784181 C 81.27006,85.461075 80.60782,86.434094 79.75017,87.245566 C 78.82272,88.123071 77.9865,89.232083 77.74454,87.469721 C 77.56618,86.170506 77.28616,85.031612 77.04242,83.735216 C 76.84713,82.696524 76.7855,81.780576 76.87437,80.786347 C 76.96927,79.724711 76.89644,78.607842 76.99391,77.517564 C 77.08104,76.542781 78.42277,75.980387 79.25724,75.3761 C 80.03621,74.812007 81.13146,74.632991 81.87539,74.094266 C 82.47479,73.66021 83.99659,73.439946 84.70643,73.328211 C 86.0109,73.122872 87.74365,72.599122 88.89695,72.805901"
     id="path17934" />
  <path
     style="fill:#000000;fill-rule:evenodd;stroke:#000000;stroke-width:0.80003422px;stroke-linecap:butt;stroke-linejoin:miter;stroke-opacity:1"
     d="M 54.795751,90.117905 C 57.218626,92.300613 62.108073,97.237373 66.128493,98.040608 C 67.110173,98.236738 68.078359,98.542778 69.053292,98.793858 C 72.558691,99.696648 76.31548,99.082328 79.49438,97.755008 C 79.85921,97.602678 80.22405,97.450358 80.58886,97.298018 C 82.64071,96.441306 83.94953,95.414682 85.32538,93.345887 C 86.4141,91.70882 87.89827,90.809338 88.86454,88.816704 C 90.62539,85.185456 90.64196,86.203245 91.44639,86.123208 C 93.16387,85.952324 91.87376,97.834778 91.80011,98.271078 C 91.15178,102.11129 92.11484,103.52457 89.0311,104.81216 C 87.17264,105.58813 85.40588,106.32581 83.55873,107.09707 C 81.46468,107.97141 78.87589,106.51874 76.68325,106.7369 C 74.906855,106.91364 72.2757,105.94078 70.585748,105.60314 C 68.888828,105.26411 67.100807,104.41587 65.548429,103.66772 C 63.729743,102.79125 62.926169,102.59638 61.289097,100.95873 C 59.632235,99.301268 59.054486,98.426298 57.987063,96.41404 C 57.139776,94.816775 57.170603,92.914707 54.795751,90.117905 z "
     id="path17936" />
  <path
     style="fill:#ffffff;fill-rule:evenodd;stroke:#000000;stroke-width:2.27600002;stroke-linecap:butt;stroke-linejoin:miter;stroke-miterlimit:4;stroke-dasharray:none;stroke-opacity:1"
     d="M 64.288529,98.682235 C 63.881117,97.9142 63.004474,105.82664 63.71924,113.01047 C 63.932462,115.15348 64.705056,117.18997 64.935209,119.50315 C 65.410844,124.28356 67.217268,115.97715 67.593497,114.71351 C 68.516741,111.61262 68.362767,108.60565 68.677196,105.55541 C 68.876143,103.62546 69.134329,102.47556 69.325847,100.61765 C 69.586635,98.087793 70.731597,105.14503 72.261421,110.07202 C 73.111886,112.81104 73.33044,115.56431 74.495438,118.20385 C 75.890399,121.36441 76.39251,122.83067 76.82156,118.66857 C 77.151,115.47267 77.27147,111.73337 76.9558,108.56068 C 76.74748,106.46696 77.43615,104.79573 77.21938,102.61697 C 76.91726,99.580498 80.5855,110.88147 81.03583,112.33178 C 81.17561,112.78199 81.31541,113.2322 81.45519,113.68241 C 81.8787,115.04639 85.4406,122.23115 85.03942,118.19901 C 84.55186,113.29875 85.5246,107.86264 85.82231,103.15336 C 85.90393,101.86216 85.04747,96.441798 86.04375,99.650458 C 87.27428,103.61349 90.88525,109.33748 92.77716,112.90401 C 94.33302,115.83704 94.63356,117.24069 94.18811,112.76362 C 93.93501,110.21979 93.18581,108.41843 92.93785,105.92626 C 92.77041,104.24336 91.7639,102.37962 91.29468,100.86845 C 90.75792,99.139776 90.18637,97.276791 89.12141,96.211451 C 87.38994,94.479367 87.02358,96.818337 85.34219,98.32791 C 84.16498,99.384828 82.64045,100.26372 81.31509,100.81711 C 79.86288,101.42346 78.1813,101.477 76.55211,101.6391 C 74.942196,101.79928 73.630893,102.40677 72.037044,102.08834 C 70.375176,101.75631 68.946586,101.25524 67.31621,100.46951 C 65.985563,99.828238 65.962828,100.02147 64.288529,98.682235 z "
     id="path17938" />
  <path
     style="fill:#803300;fill-rule:evenodd;stroke:#000000;stroke-width:2.3900001;stroke-linecap:butt;stroke-linejoin:miter;stroke-miterlimit:4;stroke-dasharray:none;stroke-opacity:1"
     d="M 122.42314,100.75087 C 122.25402,101.70796 121.19623,102.97064 119.99084,103.73546 C 118.74075,104.52864 118.08026,105.73388 116.79409,106.54995 C 115.62832,107.28963 114.70513,108.3995 113.57208,109.11842 C 112.28608,109.93439 111.10436,110.48432 110.10369,111.71221 C 109.12323,112.91528 107.73242,113.83248 106.68583,114.79802 C 105.57619,115.82172 104.91229,117.25129 103.83655,118.57128 C 102.82226,119.81589 102.21468,121.21219 100.98728,122.34454 C 99.90245,123.34535 98.89852,124.90759 97.89162,126.14311 C 97.03114,127.19896 96.03092,128.4263 95.23819,129.39902 C 93.97914,130.94395 91.54324,132.21124 91.7761,134.4783 C 91.99655,136.62461 93.06759,137.80329 94.66957,138.40754 C 95.39527,138.68128 97.97377,137.35924 98.5107,137.01855 C 100.04373,136.04584 100.60368,134.72736 101.63163,133.466 C 102.42741,132.48953 103.18271,131.56274 104.06394,130.48141 C 105.38865,128.85591 106.9691,127.74768 108.341,126.06427 C 109.93099,124.11326 111.20017,122.83293 112.78865,120.88376 C 113.82393,119.61341 114.79451,118.14542 115.85904,116.83918 C 117.04837,115.3798 117.89284,114.89764 118.78412,113.80397 C 119.83721,112.51178 121.164,111.60842 122.4231,110.44683 C 123.85416,109.1266 124.90542,108.08943 126.2832,106.81836 C 127.51034,105.68625 129.2366,104.28929 130.19383,103.68192 C 131.78664,102.67129 132.60514,101.40182 134.0792,100.29947 C 135.59453,99.166263 136.78209,97.536276 138.18569,96.645693 C 139.26062,95.963644 140.07721,94.324681 141.06023,93.118452 C 142.43353,91.433332 141.64061,91.109621 140.23895,89.970824 C 139.15253,89.088152 137.80117,89.421178 136.76424,90.07911 C 135.654,90.78356 134.10764,91.109595 132.72726,91.98545 C 131.35963,92.853215 129.86699,93.806551 128.76608,94.629847 C 127.39988,95.651539 126.53074,96.264642 125.56934,97.44434 C 124.25636,99.055451 124.58918,100.08211 122.42314,100.75087 z "
     id="path17944" />
  <path
     style="fill:#ff0000;fill-rule:evenodd;stroke:#000000;stroke-width:2.3900001;stroke-linecap:butt;stroke-linejoin:miter;stroke-miterlimit:4;stroke-dasharray:none;stroke-opacity:1"
     d="M 136.91925,99.825999 C 135.73879,100.90639 134.14256,98.235739 132.75422,97.440608 C 131.51232,96.729351 130.45905,95.851482 129.67762,94.678786 C 128.98074,93.632977 128.56838,92.521711 128.34043,91.357907 C 127.98816,89.55945 128.08365,87.825853 128.17554,85.931208 C 128.25842,84.222273 128.38324,82.52007 128.84366,80.981587 C 129.3807,79.1871 130.59831,77.829711 131.42274,76.348785 C 132.13076,75.076971 133.30036,74.26536 134.14193,73.240378 C 135.05421,72.129276 135.9604,71.162908 137.07461,70.143155 C 138.15805,69.151561 139.24452,68.506681 140.40282,67.716817 C 141.18102,67.186149 141.99468,66.758833 143.02765,66.553972 C 144.13419,66.334518 145.95676,65.731902 145.04345,64.709057 C 143.68898,63.192147 142.96472,62.836853 141.57132,61.276349 C 139.62245,59.093753 143.68746,60.520303 146.09662,60.646495 C 147.15388,60.701875 148.27572,60.537143 149.32,60.38189 C 150.61688,60.189082 151.89257,60.192832 153.19434,59.934661 C 154.65181,59.645611 155.34683,59.838233 155.94879,60.512384 C 156.21107,60.806118 155.99246,64.025166 155.97357,64.414688 C 155.90336,65.862338 155.40962,67.216241 155.3369,68.715789 C 155.24534,70.603758 155.28599,73.444987 153.49266,71.43658 C 152.48127,70.303896 150.99675,68.415539 149.59354,67.981505 C 148.15619,67.536914 148.25597,67.169729 146.98967,68.712005 C 146.20183,69.671558 145.54483,70.518022 144.92145,71.637787 C 144.31246,72.731725 143.79096,73.668491 143.28022,74.585933 C 142.77051,75.501524 141.51645,76.598496 140.78501,77.489349 C 140.12053,78.298646 140.03885,79.634943 139.98727,80.6984 C 139.925,81.982299 140.21416,82.903379 140.68399,83.985732 C 141.42847,85.700837 142.17196,84.172945 143.50134,83.266416 C 144.52778,82.56647 145.42279,81.714429 146.17859,81.022703 C 147.3672,79.934859 148.10088,79.676524 149.06933,78.790173 C 150.01087,77.928452 151.59626,77.622197 152.12115,77.649692 C 152.5452,77.671903 151.44124,81.436452 151.28147,81.723437 C 150.6575,82.844269 150.0167,83.798012 149.41626,84.876574 C 148.75367,86.066794 148.14561,86.767579 147.76454,88.040895 C 147.48483,88.975549 147.06152,90.027761 146.76379,91.02259 C 146.56817,91.676266 149.29783,91.588767 149.73174,91.611496 C 150.88432,91.671867 152.33952,91.147837 153.40307,90.936911 C 154.95503,90.62912 155.36536,88.398749 155.92973,87.384975 C 156.75165,85.908559 156.96948,84.780737 158.25338,83.605683 C 159.3454,82.606237 160.12879,81.321542 160.98305,80.281103 C 162.23801,78.752633 160.31591,77.192757 159.28177,75.640818 C 158.27902,74.135978 158.83129,73.666719 160.87058,73.773538 C 162.29581,73.848191 163.84696,73.183254 165.19288,72.916328 C 166.33486,72.689847 167.50352,72.886262 168.62974,72.662906 C 169.90726,72.409546 171.09281,72.227947 172.30107,71.98832 C 173.32919,71.784422 172.75988,75.767926 172.72139,76.561509 C 172.65604,77.909086 172.95086,79.055286 172.53268,80.452629 C 172.16176,81.692029 171.87418,82.471836 171.52144,83.650498 C 170.8726,85.818575 170.8456,84.977362 168.91758,84.380998 C 167.90272,84.067087 165.97143,82.077955 165.40351,81.812983 C 165.35171,81.788813 163.52247,85.191894 163.29336,85.603458 C 162.62872,86.797336 161.87872,87.749888 161.20417,88.961585 C 160.68563,89.893029 159.73907,90.678182 158.93294,91.66001 C 158.02143,92.770174 157.32806,93.335417 156.4587,94.131079 C 155.21481,95.269522 153.5742,95.944737 152.24505,97.161205 C 151.2942,98.031457 150.04339,98.876932 148.92732,99.37137 C 147.75053,99.892711 146.66071,100.24908 145.44852,100.48949 C 144.08615,100.75967 143.13411,101.10906 141.76671,101.38024 C 141.089,101.51465 139.4451,101.04191 138.57478,100.99633 C 136.95509,100.91149 137.34356,99.679253 135.83082,100.20243"
     id="path17946" />
</svg>
