<?xml version="1.0" encoding="UTF-8" standalone="no"?>
<!-- Created with Inkscape (http://www.inkscape.org/) -->
<svg
   xmlns:dc="http://purl.org/dc/elements/1.1/"
   xmlns:cc="http://web.resource.org/cc/"
   xmlns:rdf="http://www.w3.org/1999/02/22-rdf-syntax-ns#"
   xmlns:svg="http://www.w3.org/2000/svg"
   xmlns="http://www.w3.org/2000/svg"
   xmlns:sodipodi="http://sodipodi.sourceforge.net/DTD/sodipodi-0.dtd"
   xmlns:inkscape="http://www.inkscape.org/namespaces/inkscape"
   height="200"
   id="svg2801"
   inkscape:export-filename="/home/Krug/Projekte/Icon-Sets/set2/png/8a.png"
   inkscape:export-xdpi="72.000000"
   inkscape:export-ydpi="72.000000"
   inkscape:version="0.45.1"
   sodipodi:docbase="/media/sda3/workspace/hmm2000/src/sprites"
   sodipodi:docname="vampire.svg"
   sodipodi:version="0.32"
   width="180"
   inkscape:output_extension="org.inkscape.output.svg.inkscape"
   version="1.0">
  <metadata
     id="metadata3">
    <rdf:RDF>
      <cc:Work
         rdf:about="">
        <dc:title>people</dc:title>
        <dc:description />
        <dc:subject>
          <rdf:Bag>
            <rdf:li>icon</rdf:li>
            <rdf:li>people</rdf:li>
          </rdf:Bag>
        </dc:subject>
        <dc:publisher>
          <cc:Agent
             rdf:about="http://www.openclipart.org/">
            <dc:title>Open Clip Art Library</dc:title>
          </cc:Agent>
        </dc:publisher>
        <dc:creator>
          <cc:Agent>
            <dc:title>Juliane Krug</dc:title>
          </cc:Agent>
        </dc:creator>
        <dc:rights>
          <cc:Agent>
            <dc:title>Juliane Krug</dc:title>
          </cc:Agent>
        </dc:rights>
        <dc:date />
        <dc:format>image/svg+xml</dc:format>
        <dc:type
           rdf:resource="http://purl.org/dc/dcmitype/StillImage" />
        <cc:license
           rdf:resource="http://web.resource.org/cc/PublicDomain" />
        <dc:language>en</dc:language>
      </cc:Work>
      <cc:License
         rdf:about="http://web.resource.org/cc/PublicDomain">
        <cc:permits
           rdf:resource="http://web.resource.org/cc/Reproduction" />
        <cc:permits
           rdf:resource="http://web.resource.org/cc/Distribution" />
        <cc:permits
           rdf:resource="http://web.resource.org/cc/DerivativeWorks" />
      </cc:License>
    </rdf:RDF>
  </metadata>
  <defs
     id="defs2803">
    <linearGradient
       id="linearGradient4384">
      <stop
         id="stop4385"
         offset="0.0000000"
         style="stop-color:#ffffff;stop-opacity:0.77513230;" />
      <stop
         id="stop4386"
         offset="1.0000000"
         style="stop-color:#ffffff;stop-opacity:0.0000000;" />
    </linearGradient>
    <linearGradient
       id="linearGradient4376">
      <stop
         id="stop4377"
         offset="0.0000000"
         style="stop-color:#000000;stop-opacity:0.52645504;" />
      <stop
         id="stop4378"
         offset="1.0000000"
         style="stop-color:#000000;stop-opacity:0.0000000;" />
    </linearGradient>
    <linearGradient
       id="linearGradient4362">
      <stop
         id="stop4363"
         offset="0.0000000"
         style="stop-color:#ffffff;stop-opacity:0.66666669;" />
      <stop
         id="stop4364"
         offset="1.0000000"
         style="stop-color:#ffffff;stop-opacity:0.0000000;" />
    </linearGradient>
    <linearGradient
       id="linearGradient4358">
      <stop
         id="stop4359"
         offset="0"
         style="stop-color:#000;stop-opacity:1;" />
      <stop
         id="stop4360"
         offset="1"
         style="stop-color:#fff;stop-opacity:1;" />
    </linearGradient>
    <linearGradient
       id="linearGradient2180">
      <stop
         style="stop-color:#b0b0b0;stop-opacity:1.0000000;"
         offset="0.0000000"
         id="stop2181" />
      <stop
         style="stop-color:#e8e8e9;stop-opacity:1.0000000;"
         offset="1.0000000"
         id="stop2182" />
    </linearGradient>
    <linearGradient
       id="linearGradient2199">
      <stop
         style="stop-color:#0163ff;stop-opacity:0.10112359;"
         offset="0.0000000"
         id="stop2200" />
      <stop
         style="stop-color:#ffffff;stop-opacity:0.0000000;"
         offset="1.0000000"
         id="stop2201" />
    </linearGradient>
  </defs>
  <sodipodi:namedview
     bordercolor="#666666"
     borderopacity="1.0"
     id="base"
     inkscape:cx="117.5166"
     inkscape:cy="112.9122"
     inkscape:pageopacity="0.0"
     inkscape:pageshadow="2"
     inkscape:window-height="828"
     inkscape:window-width="1440"
     inkscape:window-x="0"
     inkscape:window-y="47"
     inkscape:zoom="2.5526555"
     pagecolor="#ffffff"
     width="180px"
     height="200px"
     inkscape:current-layer="svg2801" />
  <path
     style="fill:#ff0000;fill-rule:evenodd;stroke:#000000;stroke-width:2.5;stroke-linecap:butt;stroke-linejoin:miter;stroke-miterlimit:4;stroke-dasharray:none;stroke-opacity:1"
     d="M 74.102605,100.84627 C 72.421249,100.83426 69.27218,102.25588 67.051124,103.58851 C 65.069018,104.77778 63.087009,108.35167 61.958388,109.8565 C 60.724536,111.50163 57.949361,113.47377 56.865653,114.55748 C 55.047139,116.376 53.263828,118.15931 51.381168,120.04197 C 48.335752,123.08738 44.767076,126.56858 42.370943,129.44394 C 40.729648,131.4135 39.694899,133.68698 38.061705,135.32018 C 37.257371,136.12451 36.803352,139.96184 36.49471,141.19641 C 35.854108,143.75882 35.721546,145.11906 38.061705,146.28914 C 39.416226,146.9664 42.566321,146.14236 43.54619,145.8974 C 45.254474,145.47032 47.651146,145.8974 49.422423,145.8974 C 51.364415,145.8974 53.593139,144.98728 54.906908,144.3304 C 56.812173,143.37777 58.626563,142.86232 60.391393,141.97991 C 61.712546,141.31933 63.256513,140.676 64.308882,140.41291"
     id="path16897" />
  <path
     style="fill:#333333;fill-rule:evenodd;stroke:#000000;stroke-width:0.62525189px;stroke-linecap:butt;stroke-linejoin:miter;stroke-opacity:1"
     d="M 69.022409,109.76004 C 67.145699,108.68331 63.987409,106.41063 61.358909,105.25062 C 56.619369,103.15896 53.851909,97.84817 50.502279,93.413387 C 47.572639,89.534632 45.080419,83.947218 42.625909,79.885117 C 42.279699,79.312159 41.916329,78.757762 41.561529,78.194084 C 41.240319,77.683754 40.851949,77.254621 40.497159,76.784889 C 39.602589,75.600507 39.288359,73.805491 38.581289,72.557306 C 37.496909,70.643081 36.013918,68.929335 34.749538,66.920528 C 34.058698,65.822967 32.195028,73.85272 32.195028,76.50305 C 32.195028,77.994397 30.625198,81.787201 30.066288,83.267184 C 28.836738,86.522921 27.691678,88.991312 26.447408,92.286027 C 25.359548,95.16662 23.624998,96.94118 22.828528,99.05017 C 22.290328,100.4753 21.141878,102.12876 20.274028,103.27775 C 19.054998,104.8917 18.592768,106.06736 17.506658,107.50533 C 15.553949,110.09064 16.476359,110.17153 18.571038,109.4782 C 22.309388,108.24084 23.773588,105.32961 26.873158,103.27775 C 28.698528,102.06939 30.648468,100.77856 32.407908,99.61384 C 33.394108,98.96099 34.531098,98.55879 35.601038,98.20465 C 36.829678,97.79798 37.942659,96.34635 37.942659,98.76833 C 37.942659,102.12667 36.239658,105.35632 36.239658,108.91452 C 36.239658,110.6853 35.829808,113.01574 35.601038,114.83314 C 35.360848,116.74111 35.601038,119.37502 35.601038,121.03359 C 35.601038,123.64816 35.163198,125.01134 34.323778,127.23405 C 33.715058,128.84591 33.792718,131.10859 34.962408,130.33428 C 37.834709,128.43286 40.549339,120.73055 42.200159,117.08785 C 42.948359,115.43686 43.831689,114.36409 44.967529,112.86026 C 45.944339,111.567 47.169849,111.12053 48.373529,110.32372 C 49.795959,109.38209 51.036459,106.38852 51.566659,109.19636 C 52.001289,111.49814 51.766419,115.74811 51.353779,117.93337 C 50.912189,120.27196 51.992409,123.55896 51.992409,126.10669 C 51.992409,127.89663 52.105009,130.36697 52.418149,132.02531 C 52.746969,133.76661 53.536149,135.83117 54.121159,137.38025 C 55.334489,140.59305 55.217809,142.04333 56.675659,136.25289 C 57.713389,132.13111 59.605049,127.9324 60.933159,124.41566 C 61.625229,122.58309 61.929829,120.9181 62.210409,119.06072 C 62.442269,117.52581 62.980739,116.67218 63.274779,115.11498 C 63.653979,113.10679 66.627629,113.97003 67.532279,114.26946 C 69.099949,114.78834 70.810949,115.26812 72.641279,115.9605 C 73.926579,116.44669 75.195779,116.83622 75.195779,114.83314 C 75.195779,112.81434 73.971589,111.34528 72.854159,110.60556 C 71.306919,109.58131 69.452389,110.04468 67.745159,108.91452 C 66.201689,107.89277 68.081749,109.2116 67.106529,108.35084"
     id="path17898" />
  <path
     style="fill:#333333;fill-rule:evenodd;stroke:#000000;stroke-width:0.62525189px;stroke-linecap:butt;stroke-linejoin:miter;stroke-opacity:1"
     d="M 117.22224,103.54135 C 119.09895,102.46462 122.25724,100.19194 124.88574,99.031928 C 129.62528,96.940267 132.39274,91.629475 135.74237,87.194693 C 138.67201,83.31594 141.16423,77.728526 143.61874,73.666425 C 143.96495,73.093467 144.32832,72.53907 144.68312,71.975392 C 145.00433,71.465062 145.3927,71.035929 145.74749,70.566197 C 146.64206,69.381815 146.95629,67.586799 147.66336,66.338614 C 148.74774,64.424389 150.23073,62.710643 151.49511,60.701836 C 152.18595,59.604275 154.04962,67.634028 154.04962,70.284358 C 154.04962,71.775705 155.61945,75.568509 156.17836,77.048492 C 157.40791,80.304229 158.55297,82.77262 159.79724,86.067337 C 160.8851,88.947924 162.61965,90.722486 163.41612,92.831471 C 163.95432,94.256609 165.10277,95.910064 165.97062,97.059055 C 167.18965,98.673005 167.65188,99.848664 168.73799,101.28664 C 170.6907,103.87195 169.76829,103.95284 167.67361,103.25951 C 163.93526,102.02215 162.47106,99.110919 159.37149,97.059055 C 157.54612,95.850695 155.59618,94.559866 153.83674,93.395149 C 152.85054,92.742296 151.71355,92.340094 150.64361,91.985954 C 149.41497,91.579283 148.30199,90.12766 148.30199,92.549632 C 148.30199,95.907976 150.00499,99.137622 150.00499,102.69583 C 150.00499,104.46661 150.41484,106.79705 150.64361,108.61445 C 150.8838,110.52242 150.64361,113.15633 150.64361,114.8149 C 150.64361,117.42947 151.08145,118.79265 151.92087,121.01536 C 152.52959,122.62722 152.45193,124.8899 151.28224,124.11559 C 148.40994,122.21417 145.69531,114.51186 144.04449,110.86916 C 143.29629,109.21817 142.41296,108.1454 141.27712,106.64157 C 140.30031,105.34831 139.0748,104.90184 137.87112,104.10503 C 136.44869,103.1634 135.20819,100.16983 134.67799,102.97767 C 134.24336,105.27945 134.47823,109.52942 134.89087,111.71468 C 135.33246,114.05327 134.25224,117.34027 134.25224,119.888 C 134.25224,121.67794 134.13964,124.14828 133.8265,125.80662 C 133.49768,127.54792 132.7085,129.61248 132.12349,131.16156 C 130.91016,134.37436 131.02684,135.82464 129.56899,130.0342 C 128.53126,125.91242 126.6396,121.71371 125.31149,118.19697 C 124.61942,116.3644 124.31482,114.69941 124.03424,112.84203 C 123.80238,111.30712 123.26391,110.45349 122.96987,108.89629 C 122.59067,106.8881 119.61702,107.75134 118.71237,108.05077 C 117.1447,108.56965 115.4337,109.04943 113.60337,109.74181 C 112.31807,110.228 111.04887,110.61753 111.04887,108.61445 C 111.04887,106.59565 112.27306,105.12659 113.39049,104.38687 C 114.93773,103.36262 116.79226,103.82599 118.49949,102.69583 C 120.04296,101.67408 118.1629,102.99291 119.13812,102.13215"
     id="path17896" />
  <path
     d="M 90.307916,110.50443 C 95.057317,115.688 98.07966,124.97521 104.772,124.97521 C 111.24846,123.17536 112.11199,107.76866 112.97552,104.45695 C 105.63553,109.49652 98.07967,112.37628 90.307916,110.50443 z "
     id="path9383"
     sodipodi:nodetypes="cccc"
     style="fill:#000000;fill-opacity:1;fill-rule:evenodd;stroke:#000000;stroke-width:3.75;stroke-linecap:round;stroke-linejoin:round;stroke-miterlimit:4;stroke-opacity:1" />
  <path
     d="M 211.21884 70.290855 A 60.94183 57.825485 0 1 1  89.335178,70.290855 A 60.94183 57.825485 0 1 1  211.21884 70.290855 z"
     id="path3713"
     sodipodi:cx="150.27701"
     sodipodi:cy="70.290855"
     sodipodi:rx="60.94183"
     sodipodi:ry="57.825485"
     sodipodi:type="arc"
     style="fill:#ffffff;fill-opacity:1;fill-rule:evenodd;stroke:#000000;stroke-width:8.50416374;stroke-linecap:round;stroke-linejoin:round;stroke-miterlimit:4;stroke-opacity:1"
     transform="matrix(0.440859,0,0,0.441062,28.25068,54.08246)" />
  <path
     d="M 61.309545,137.3111 C 60.918904,162.50736 125.54831,165.38872 125.39201,137.3111 C 126.93679,114.98236 115.83156,102.28666 113.07189,104.44513 C 111.67065,105.5411 111.15001,129.88089 101.68208,124.28225 C 97.0792,121.56045 91.930742,111.10538 89.678135,110.75852 C 86.27906,110.23512 79.770312,107.48302 73.792598,102.33231 C 72.224305,100.98099 61.838994,114.8713 61.309545,137.3111 z "
     id="path4369"
     sodipodi:nodetypes="ccssssc"
     style="fill:#000000;fill-opacity:1;fill-rule:evenodd;stroke:#000000;stroke-width:3.75;stroke-linecap:round;stroke-linejoin:round;stroke-miterlimit:4;stroke-opacity:1" />
  <path
     style="fill:#000000;fill-rule:evenodd;stroke:#000000;stroke-width:0.44083637px;stroke-linecap:butt;stroke-linejoin:miter;stroke-opacity:1"
     d="M 82.750736,93.745334 C 83.468086,94.459852 84.845197,95.234537 86.275491,95.234537 C 89.50031,95.234537 92.792962,97.855571 96.048676,96.909891 C 98.43301,96.217321 101.11689,97.295831 103.57883,96.723741 C 104.78718,96.442951 105.86862,95.389505 106.14229,94.117634 C 106.53448,92.294931 108.0239,90.488998 109.02618,89.091571 C 109.89655,87.878064 111.03921,86.872034 111.91007,86.113164 C 111.92719,86.098251 111.82115,88.677442 111.42943,90.953077 C 111.34306,91.454818 111.2158,91.945878 111.10899,92.44228 C 110.6605,94.526664 110.57226,96.360781 109.98748,98.399091 C 109.08446,101.54669 105.83199,101.17958 104.2197,103.05286 C 103.37844,104.03028 100.52348,103.84727 99.41321,104.16976 C 97.942536,104.59694 95.641411,103.26033 94.286299,102.86671 C 93.154195,102.53786 91.848147,102.56076 90.761543,102.30825 C 89.711139,102.06417 88.52087,101.51916 87.717437,100.81905 C 87.031373,100.22121 86.084059,99.814561 85.314194,99.143701 C 84.357371,98.309921 83.983319,97.425521 83.391601,96.909891 C 82.302569,95.960906 83.088675,95.315898 82.750736,93.745334 z "
     id="path17868" />
  <g
     id="g17870"
     transform="matrix(0.4089766,0,0,0.475178,115.91548,78.38213)">
    <path
       id="path16893"
       d="M -66.597314,44.826178 C -66.363462,47.0226 -64.476264,51.905687 -63.855072,55.011649 C -63.372253,57.425741 -62.317747,59.142864 -61.896327,61.671381 C -61.546513,63.770267 -60.72108,65.302182 -60.72108,67.547614 C -60.72108,68.879809 -58.843512,72.08625 -58.370587,73.032099 C -57.91044,73.952394 -57.978838,76.709507 -57.978838,77.733086 C -57.500792,78.689178 -55.109117,71.929905 -52.886102,66.372368 C -51.870889,63.834334 -51.710856,61.698627 -51.710856,58.929138 C -51.710856,56.613098 -51.88712,54.58068 -50.927358,52.661156 C -50.110169,51.026778 -49.809632,48.582002 -49.360362,46.784922 C -48.777801,44.454677 -47.447232,42.928253 -46.226371,41.300438 C -45.73111,39.319396 -53.350812,37.603406 -54.453098,37.382948 C -55.968239,37.07992 -58.915027,38.204619 -60.329332,38.558195 C -62.522076,39.106381 -64.137731,40.40785 -65.422067,41.692186 C -66.981876,43.251995 -66.421867,44.387561 -67.380812,46.784922"
       style="fill:#ffffff;fill-rule:evenodd;stroke:#000000;stroke-width:1px;stroke-linecap:butt;stroke-linejoin:miter;stroke-opacity:1" />
    <path
       id="path16895"
       d="M -61.11283,67.547615 C -61.243413,67.678198 -60.851664,67.286449 -60.721081,67.155866 C -59.493387,65.928172 -57.512518,65.197121 -54.453098,65.197121 C -53.658793,65.197121 -52.873194,65.396223 -52.102605,65.58887 C -49.766666,65.58887 -54.191932,69.767525 -55.236596,71.856853 C -56.239594,73.862849 -56.996224,76.159606 -57.978838,78.124835 C -58.109421,78.386001 -58.240004,78.647167 -58.370587,78.908333 C -59.660652,81.488462 -59.154085,73.174529 -59.154085,70.289857 C -59.154085,69.16654 -60.534888,68.510851 -61.11283,67.547615 z "
       style="fill:#ff0000;fill-rule:evenodd;stroke:#000000;stroke-width:1px;stroke-linecap:butt;stroke-linejoin:miter;stroke-opacity:1" />
  </g>
  <g
     id="g17874"
     transform="matrix(0.4089766,0,0,0.475178,130.65064,76.063727)">
    <path
       id="path17876"
       d="M -66.597314,44.826178 C -66.363462,47.0226 -64.476264,51.905687 -63.855072,55.011649 C -63.372253,57.425741 -62.317747,59.142864 -61.896327,61.671381 C -61.546513,63.770267 -60.72108,65.302182 -60.72108,67.547614 C -60.72108,68.879809 -58.843512,72.08625 -58.370587,73.032099 C -57.91044,73.952394 -57.978838,76.709507 -57.978838,77.733086 C -57.500792,78.689178 -55.109117,71.929905 -52.886102,66.372368 C -51.870889,63.834334 -51.710856,61.698627 -51.710856,58.929138 C -51.710856,56.613098 -51.88712,54.58068 -50.927358,52.661156 C -50.110169,51.026778 -49.809632,48.582002 -49.360362,46.784922 C -48.777801,44.454677 -47.447232,42.928253 -46.226371,41.300438 C -45.73111,39.319396 -53.350812,37.603406 -54.453098,37.382948 C -55.968239,37.07992 -58.915027,38.204619 -60.329332,38.558195 C -62.522076,39.106381 -64.137731,40.40785 -65.422067,41.692186 C -66.981876,43.251995 -66.421867,44.387561 -67.380812,46.784922"
       style="fill:#ffffff;fill-rule:evenodd;stroke:#000000;stroke-width:1px;stroke-linecap:butt;stroke-linejoin:miter;stroke-opacity:1" />
    <path
       id="path17878"
       d="M -61.11283,67.547615 C -61.243413,67.678198 -60.851664,67.286449 -60.721081,67.155866 C -59.493387,65.928172 -57.512518,65.197121 -54.453098,65.197121 C -53.658793,65.197121 -52.873194,65.396223 -52.102605,65.58887 C -49.766666,65.58887 -54.191932,69.767525 -55.236596,71.856853 C -56.239594,73.862849 -56.996224,76.159606 -57.978838,78.124835 C -58.109421,78.386001 -58.240004,78.647167 -58.370587,78.908333 C -59.660652,81.488462 -59.154085,73.174529 -59.154085,70.289857 C -59.154085,69.16654 -60.534888,68.510851 -61.11283,67.547615 z "
       style="fill:#ff0000;fill-rule:evenodd;stroke:#000000;stroke-width:1px;stroke-linecap:butt;stroke-linejoin:miter;stroke-opacity:1" />
  </g>
  <path
     sodipodi:type="arc"
     style="opacity:1;fill:#000000;fill-opacity:1;fill-rule:nonzero;stroke:none;stroke-width:2.5;stroke-miterlimit:4;stroke-dasharray:none;stroke-opacity:1"
     id="path17880"
     sodipodi:cx="-80.700272"
     sodipodi:cy="61.125011"
     sodipodi:rx="4.7009869"
     sodipodi:ry="8.0308523"
     d="M -75.999285 61.125011 A 4.7009869 8.0308523 0 1 1  -85.401258,61.125011 A 4.7009869 8.0308523 0 1 1  -75.999285 61.125011 z"
     transform="translate(169.99858,19.195696)" />
  <path
     sodipodi:type="arc"
     style="opacity:1;fill:#000000;fill-opacity:1;fill-rule:nonzero;stroke:none;stroke-width:2.5;stroke-miterlimit:4;stroke-dasharray:none;stroke-opacity:1"
     id="path17882"
     sodipodi:cx="-80.700272"
     sodipodi:cy="61.125011"
     sodipodi:rx="4.7009869"
     sodipodi:ry="8.0308523"
     d="M -75.999285 61.125011 A 4.7009869 8.0308523 0 1 1  -85.401258,61.125011 A 4.7009869 8.0308523 0 1 1  -75.999285 61.125011 z"
     transform="translate(184.49328,17.432828)" />
  <path
     sodipodi:type="arc"
     style="opacity:1;fill:#ff0000;fill-opacity:1;fill-rule:nonzero;stroke:none;stroke-width:2.5;stroke-miterlimit:4;stroke-dasharray:none;stroke-opacity:1"
     id="path17884"
     sodipodi:cx="-80.700272"
     sodipodi:cy="61.125011"
     sodipodi:rx="4.7009869"
     sodipodi:ry="8.0308523"
     d="M -75.999285 61.125011 A 4.7009869 8.0308523 0 1 1  -85.401258,61.125011 A 4.7009869 8.0308523 0 1 1  -75.999285 61.125011 z"
     transform="matrix(0.875,0,0,0.6097561,174.60162,41.286492)" />
  <path
     sodipodi:type="arc"
     style="opacity:1;fill:#ff0000;fill-opacity:1;fill-rule:nonzero;stroke:none;stroke-width:2.5;stroke-miterlimit:4;stroke-dasharray:none;stroke-opacity:1"
     id="path17886"
     sodipodi:cx="-80.700272"
     sodipodi:cy="61.125011"
     sodipodi:rx="4.7009869"
     sodipodi:ry="8.0308523"
     d="M -75.999285 61.125011 A 4.7009869 8.0308523 0 1 1  -85.401258,61.125011 A 4.7009869 8.0308523 0 1 1  -75.999285 61.125011 z"
     transform="matrix(0.875,0,0,0.6097561,159.91104,43.245235)" />
</svg>
