<?xml version="1.0" encoding="UTF-8" standalone="no"?>
<!-- Created with Inkscape (http://www.inkscape.org/) -->
<svg
   xmlns:dc="http://purl.org/dc/elements/1.1/"
   xmlns:cc="http://web.resource.org/cc/"
   xmlns:rdf="http://www.w3.org/1999/02/22-rdf-syntax-ns#"
   xmlns:svg="http://www.w3.org/2000/svg"
   xmlns="http://www.w3.org/2000/svg"
   xmlns:sodipodi="http://inkscape.sourceforge.net/DTD/sodipodi-0.dtd"
   xmlns:inkscape="http://www.inkscape.org/namespaces/inkscape"
   width="5cm"
   height="5cm"
   id="svg2"
   sodipodi:version="0.32"
   inkscape:version="0.43"
   version="1.0"
   sodipodi:docbase="/home/cervelle/gren"
   sodipodi:docname="grenouille.svg">
  <defs
     id="defs4" />
  <sodipodi:namedview
     id="base"
     pagecolor="#ffffff"
     bordercolor="#666666"
     borderopacity="1.0"
     inkscape:pageopacity="0.0"
     inkscape:pageshadow="2"
     inkscape:zoom="13.930876"
     inkscape:cx="81.773308"
     inkscape:cy="148.76274"
     inkscape:document-units="px"
     inkscape:current-layer="layer1"
     inkscape:window-width="1270"
     inkscape:window-height="689"
     inkscape:window-x="0"
     inkscape:window-y="25"
     showguides="true"
     inkscape:guide-bbox="true" />
  <metadata
     id="metadata7">
    <rdf:RDF>
      <cc:Work
         rdf:about="">
        <dc:format>image/svg+xml</dc:format>
        <dc:type
           rdf:resource="http://purl.org/dc/dcmitype/StillImage" />
      </cc:Work>
    </rdf:RDF>
  </metadata>
  <g
     inkscape:label="Calque 1"
     inkscape:groupmode="layer"
     id="layer1">
    <path
       sodipodi:type="arc"
       style="opacity:1;fill:#ffffff;fill-opacity:1;stroke:none;stroke-width:1;stroke-linejoin:round;stroke-miterlimit:4;stroke-dasharray:none;stroke-dashoffset:0;stroke-opacity:1"
       id="path2190"
       sodipodi:cx="100.8551"
       sodipodi:cy="26.959446"
       sodipodi:rx="16.653654"
       sodipodi:ry="15.612802"
       d="M 117.50876 26.959446 A 16.653654 15.612802 0 1 1  84.201448,26.959446 A 16.653654 15.612802 0 1 1  117.50876 26.959446 z" />
    <path
       style="fill:#ffffff;fill-opacity:1;stroke:none;stroke-width:1;stroke-linejoin:round;stroke-miterlimit:4;stroke-dashoffset:0;stroke-opacity:1"
       d="M 81.976177,28.96937 C 81.976177,38.380121 73.384615,45.658917 63.240816,45.658917 C 53.097018,45.658917 45.869333,39.815781 45.869333,30.40503 C 45.869333,20.994279 53.240584,11.346644 63.384382,11.346644 C 73.528181,11.346644 81.976177,19.558619 81.976177,28.96937 z "
       id="path1314"
       sodipodi:nodetypes="csssc" />
    <path
       style="opacity:1;fill:#53e22f;fill-opacity:1;stroke:#14a027;stroke-width:2.06444812;stroke-linejoin:round;stroke-miterlimit:4;stroke-dasharray:none;stroke-dashoffset:0;stroke-opacity:1"
       d="M 129.40114,64.116041 C 127.90097,60.464461 129.37554,58.900548 129.37554,57.813812 C 129.37553,56.174436 129.0269,54.209894 129.0269,52.441686 C 129.0269,50.674691 128.97596,49.154098 129.37554,47.785843 C 129.74107,46.534175 130.80926,44.973027 131.32791,44.085046 C 132.25347,42.500376 132.96244,41.730759 134.88402,40.085796 C 136.30241,38.871572 135.44182,36.743107 134.88402,35.788095 C 134.76403,35.582661 134.56107,35.352022 134.39592,35.191192 C 134.34516,35.144204 134.24104,35.055408 134.18674,35.012122 C 134.09436,34.941989 133.93932,34.83379 133.8381,34.77336 C 132.95348,34.269763 131.73473,34.116767 130.56091,34.116767 C 130.55273,34.118097 130.50044,34.114147 130.49118,34.116767 C 130.48087,34.120641 130.43278,34.111677 130.42145,34.116767 C 130.40915,34.123036 130.36498,34.169048 130.35173,34.176458 C 130.33756,34.184969 130.29705,34.226571 130.282,34.236148 C 129.40779,34.819394 127.2349,36.964 126.65617,37.459423 C 125.75832,38.261055 125.56164,39.630775 125.40107,40.085796 C 125.39658,40.097157 125.33584,40.135646 125.33134,40.145486 C 125.32681,40.153744 125.33594,40.19857 125.33134,40.205177 C 125.32653,40.20829 125.26659,40.203907 125.26162,40.205177 C 125.25037,40.195877 125.20431,40.163325 125.19189,40.145486 C 125.09366,39.978214 124.93331,39.558501 124.7038,38.77261 C 124.12671,36.796546 123.95158,35.785075 122.75143,34.415219 C 122.62887,34.275339 122.51952,34.174643 122.40279,34.116767 C 122.39448,34.113014 122.34134,34.120146 122.33306,34.116767 C 122.31661,34.111482 122.27967,34.060932 122.26333,34.057077 C 122.2552,34.055499 122.20172,34.058309 122.19361,34.057077 C 122.18555,34.056519 122.1319,34.057306 122.12388,34.057077 C 122.09997,34.058324 122.00809,34.053047 121.98442,34.057077 C 121.95308,34.064826 121.87588,34.104514 121.84497,34.116767 C 121.82962,34.123959 121.79049,34.16824 121.77524,34.176458 C 121.12409,34.57209 120.52771,35.878949 120.03205,36.444689 C 119.81412,36.693436 119.70012,36.983819 119.61369,37.280353 C 119.3775,38.157945 119.52382,39.199698 119.26505,40.085796 C 119.26108,40.099392 119.26964,40.133564 119.26505,40.145486 C 119.25985,40.155786 119.20111,40.196451 119.19532,40.205177 C 119.19214,40.208777 119.19864,40.261639 119.19532,40.264867 C 119.19172,40.267371 119.12933,40.262716 119.12559,40.264867 C 119.12121,40.265345 119.06038,40.264707 119.05587,40.264867 C 119.04587,40.262783 118.9966,40.268078 118.98614,40.264867 C 118.95343,40.251995 118.88316,40.22687 118.84668,40.205177 C 118.83414,40.197065 118.78988,40.154431 118.77696,40.145486 C 118.43156,39.8926 117.91024,39.34166 117.45213,39.011371 C 117.39936,38.974921 117.29522,38.922571 117.24295,38.89199 C 117.19093,38.863664 117.08476,38.793287 117.03377,38.77261 C 116.9832,38.754779 116.87361,38.721318 116.82459,38.71292 C 116.7923,38.709613 116.71653,38.71134 116.68513,38.71292 C 116.6774,38.713962 116.62307,38.711544 116.6154,38.71292 C 116.6002,38.716348 116.5606,38.767787 116.54568,38.77261 C 116.53773,38.776008 116.48374,38.768822 116.47595,38.77261 C 116.46846,38.777158 116.41356,38.82738 116.40622,38.8323 C 115.54628,39.521311 115.77867,42.903342 115.77867,43.786594 C 115.77868,45.80195 116.14803,46.722686 116.54568,48.084295 C 116.7957,48.94045 117.38241,49.994384 116.3775,50.56238 C 102.82496,44.118482 101.35444,42.115264 86.911471,42.115266 C 72.484278,42.115266 59.332023,48.452688 49.537514,58.828547 C 49.395566,57.652702 49.007814,55.164356 48.700783,54.113014 C 48.225784,52.48651 48.282418,50.623249 48.282418,48.800578 C 48.282423,47.705711 47.848135,45.582489 47.515415,44.443187 C 47.210354,43.398596 47.00316,42.700647 46.53923,42.294337 C 46.434103,42.209002 46.255819,42.11748 46.120865,42.055576 C 45.661404,41.862527 44.997805,41.757124 44.029039,41.757124 C 43.940936,41.757124 43.832431,41.749547 43.750128,41.757124 C 42.076616,41.911186 41.57309,43.634031 40.8913,44.801329 C 39.826267,46.624773 40.963397,47.847562 42.076668,48.800578 C 42.10581,48.825526 42.126258,48.839514 42.146395,48.860269 C 42.151177,48.866285 42.212285,48.914383 42.216123,48.919959 C 42.217212,48.924249 42.215922,48.975776 42.216123,48.979649 C 42.208068,48.983418 42.157636,49.037076 42.146395,49.03934 C 42.139237,49.039744 42.084573,49.03929 42.076668,49.03934 C 41.084787,48.971419 36.069635,46.969204 35.452552,46.771109 C 32.802245,45.920309 30.745765,44.413495 28.410071,46.412967 C 25.959011,48.511198 25.738079,51.148781 28.061434,52.143235 C 30.310792,53.106015 33.860908,52.330104 35.452552,51.785093 C 35.501439,51.768353 35.553377,51.735811 35.592007,51.725403 C 35.603773,51.722618 35.651062,51.727515 35.661735,51.725403 C 35.671327,51.723955 35.722936,51.726197 35.731462,51.725403 C 35.736884,51.726508 35.796774,51.723683 35.80119,51.725403 C 35.80268,51.728902 35.800645,51.781021 35.80119,51.785093 C 35.798987,51.790825 35.804278,51.838518 35.80119,51.844783 C 35.796377,51.852083 35.737116,51.896669 35.731462,51.904473 C 34.973206,52.817613 29.867223,56.35445 28.828436,56.799077 C 25.072628,58.40666 25.04806,60.546647 26.876066,62.111513 C 28.356786,63.379082 30.438696,63.782841 32.733178,63.782841 C 35.457508,63.782841 36.869909,63.584247 38.171926,62.469655 C 38.524026,62.168237 38.866372,61.939011 39.148111,61.813061 C 39.297578,61.751654 39.499708,61.713639 39.636204,61.693681 C 39.713364,61.68538 39.840757,61.690266 39.915114,61.693681 C 39.988909,61.69985 40.121929,61.677195 40.194024,61.693681 C 40.768494,61.844803 41.342777,62.29692 42.076668,62.768106 C 42.597,63.102175 42.563053,63.244167 42.843671,63.48439 L 47.623761,63.572406 C 37.400219,75.584137 36.103671,85.8262 34.853642,100.265 C 35.387951,113.44703 34.580331,126.1178 39.078384,135.17242 L 32.733178,126.51733 C 32.679846,126.48307 32.575228,126.43789 32.523996,126.39795 C 32.490294,126.3701 32.417349,126.30877 32.384541,126.27857 C 31.461939,125.38507 30.852505,123.53956 30.362442,121.86149 C 29.846289,120.09408 29.697333,117.97238 29.177074,116.19091 C 28.574309,114.12692 27.895719,112.16144 27.224703,109.86374 C 26.566594,107.61025 25.092257,106.45154 24.156692,104.84976 C 23.144188,103.11626 21.154487,102.8783 19.484947,102.1637 C 17.576012,101.34662 15.407743,103.02762 14.813202,103.53657 C 13.270122,104.85753 13.599662,107.91688 13.976472,109.20715 C 14.554008,111.18474 15.085501,112.42477 16.347208,113.50485 C 17.11457,114.16175 17.58025,114.67648 17.741759,114.99711 C 17.776556,115.07734 17.814186,115.17555 17.811486,115.23587 C 17.810214,115.24755 17.744481,115.28464 17.741759,115.29556 C 17.739677,115.30064 17.744195,115.35035 17.741759,115.35525 C 17.73791,115.35942 17.676228,115.41095 17.672031,115.41494 C 17.661569,115.42186 17.614129,115.4684 17.602304,115.47463 C 17.589128,115.48017 17.547086,115.46975 17.532576,115.47463 C 17.469248,115.49147 17.337589,115.52765 17.253666,115.53432 C 16.742288,115.55863 15.900303,115.40883 14.813202,115.17618 C 13.377628,114.86895 12.418891,114.85699 11.745191,115.11649 C 11.105684,115.38677 10.602416,115.93892 10.071731,116.8475 C 8.8847495,118.87974 8.537725,120.00809 8.537725,121.86149 C 8.537725,124.06755 10.395085,124.81485 12.024101,125.86074 C 14.242938,127.28532 15.606896,127.40348 17.881214,127.89021 C 17.919213,127.89835 17.986854,127.8815 18.020669,127.89021 C 18.052433,127.89923 18.132385,127.94033 18.160124,127.9499 C 18.19877,127.96468 18.269579,127.9936 18.299579,128.00959 C 18.317708,128.02052 18.354839,128.05784 18.369307,128.06928 C 18.374762,128.07526 18.434449,128.12288 18.439034,128.12897 C 18.441919,128.13531 18.436979,128.1822 18.439034,128.18866 C 18.438675,128.19546 18.440172,128.24146 18.439034,128.24835 C 18.437131,128.25536 18.441689,128.30092 18.439034,128.30804 C 18.430789,128.32269 18.380378,128.35268 18.369307,128.36773 C 18.350637,128.3906 18.324203,128.46339 18.299579,128.48711 C 17.459475,129.24668 13.796439,130.43195 12.860832,131.23287 C 12.143165,131.84723 11.269792,132.34798 10.490096,132.90419 C 8.2787559,134.48172 9.5887833,137.8761 10.071731,139.52982 C 10.79724,142.0141 13.767383,143.35009 15.580205,144.90194 C 17.091338,146.19555 20.773668,145.93933 22.552958,145.55854 C 22.561127,145.55678 22.614435,145.56067 22.622686,145.55854 C 22.647926,145.54979 22.736214,145.51095 22.762141,145.49884 C 23.7815,144.9479 25.321449,141.98487 26.039335,141.26083 C 26.051243,141.24968 26.097636,141.21092 26.109063,141.20114 C 27.536844,139.9789 30.164311,140.60898 31.54781,141.20114 C 33.566307,142.06512 36.377429,142.43267 38.938929,143.52907 C 40.756673,144.3071 42.958793,146.97026 44.029039,147.88646 C 45.148126,148.84444 49.175595,150.12579 49.467786,150.15469 C 49.474862,150.16219 49.530436,150.14718 49.537514,150.15469 C 59.335772,160.55277 72.466885,166.92766 86.911471,166.92766 C 104.1768,166.92766 119.59906,157.85353 129.65445,143.64845 C 129.65445,143.64845 133.11995,142.93319 134.3262,142.57402 C 134.36418,142.56365 134.43095,142.58145 134.46565,142.57402 C 137.07585,142.0154 139.31695,140.46769 141.50813,139.52982 C 142.48026,139.11372 143.95534,137.96708 144.7156,137.91818 C 144.72476,137.91827 144.77641,137.9177 144.78533,137.91818 C 144.79375,137.9194 144.84689,137.97624 144.85505,137.97787 C 144.86296,137.97989 144.91714,137.97544 144.92478,137.97787 C 144.93842,137.98526 144.98202,138.02841 144.99451,138.03756 C 145.00046,138.04258 145.05858,138.03208 145.06424,138.03756 C 145.06958,138.04352 145.0592,138.09083 145.06424,138.09725 C 145.06864,138.10464 145.12988,138.14905 145.13396,138.15694 C 145.13772,138.16534 145.13055,138.20773 145.13396,138.21663 C 145.13704,138.22605 145.13123,138.26637 145.13396,138.27632 C 145.13635,138.28681 145.13193,138.32499 145.13396,138.33601 C 145.13564,138.34759 145.20238,138.38357 145.20369,138.3957 C 145.20558,138.42109 145.2033,138.4874 145.20369,138.51508 C 145.2005,138.76026 145.1211,139.09634 144.99451,139.52982 C 144.90373,139.84066 143.90716,143.1799 144.29723,144.60349 C 144.31396,144.65892 144.34554,144.73357 144.36696,144.78256 C 144.37828,144.80621 144.42412,144.88005 144.43669,144.90194 C 144.44329,144.91243 144.42977,144.9516 144.43669,144.96163 C 144.44394,144.97118 144.49883,145.01225 144.50642,145.02132 C 144.51468,145.02938 144.56754,145.07347 144.57614,145.08101 C 144.5851,145.08804 144.63656,145.13421 144.64587,145.1407 C 144.67599,145.15692 144.75184,145.18933 144.78533,145.20039 C 144.79687,145.20349 144.84312,145.19789 144.85505,145.20039 C 144.86738,145.20228 144.91206,145.19913 144.92478,145.20039 C 144.93791,145.20102 144.98098,145.20039 144.99451,145.20039 C 148.17214,145.20039 149.67352,144.42027 152.38563,142.87247 C 156.39482,140.58441 158.66111,138.15545 158.66111,133.85924 C 158.66111,132.08891 158.4813,131.17656 158.45192,130.93441 C 158.50453,131.05393 158.77225,131.78129 159.42811,132.90419 C 160.25173,134.31432 160.98608,136.5453 163.33285,136.5453 C 166.54944,136.5453 168.95793,136.52475 170.3056,134.21738 C 171.59701,132.00636 172.25798,128.70832 172.25797,125.86074 C 172.25797,123.46576 171.39511,119.69331 169.25969,117.98162 C 168.78198,117.61182 168.19425,117.33577 167.58623,117.20565 C 165.65282,116.79187 164.16281,116.94318 163.47231,116.96688 C 163.41217,116.96816 163.30911,116.96927 163.26312,116.96688 C 163.2494,116.96559 163.20548,116.96872 163.19339,116.96688 C 163.18295,116.96446 163.13244,116.96994 163.12367,116.96688 C 163.11432,116.96076 163.05941,116.91503 163.05394,116.90719 C 163.05387,116.90375 163.05356,116.85117 163.05394,116.8475 C 163.05739,116.83876 163.11839,116.79755 163.12367,116.78781 C 163.23046,116.62624 163.54355,116.309 164.09985,115.83277 C 165.42059,114.70215 167.9671,113.55524 168.7716,111.83352 C 169.79005,109.6539 169.95697,108.30137 169.95697,105.50635 C 169.95697,104.05736 169.88807,102.13724 168.7716,101.14896 C 168.75906,101.13833 168.71467,101.09967 168.70187,101.08927 C 168.6104,101.01809 168.45844,100.9095 168.35323,100.85051 C 168.32259,100.83419 168.2456,100.80607 168.21378,100.79082 C 168.18135,100.77612 168.10796,100.74471 168.07432,100.73113 C 167.92018,100.67261 167.69674,100.5859 167.5165,100.55206 C 167.31288,100.51769 167.05799,100.49237 166.81923,100.49237 C 164.76974,100.49237 161.22549,100.90887 160.61348,102.82029 C 160.42232,103.47486 160.17651,103.98415 159.9162,104.37223 C 159.38618,105.13506 158.63352,105.63019 157.47574,106.81954 C 156.82599,107.487 156.24103,108.23465 155.52337,108.84901 C 153.86719,110.26678 152.15567,112.03038 150.43326,113.50485 C 148.88605,114.82934 147.60769,115.62523 146.17988,116.8475 C 144.63785,118.16756 143.92973,119.43033 142.27514,120.84676 C 142.15991,120.94539 135.20829,121.16569 133.85772,122.61332 C 133.85772,122.61332 136.40696,108.25516 136.64682,96.844893 C 136.88667,85.082407 133.39809,73.845086 129.40114,64.116041 z "
       id="path3079"
       sodipodi:nodetypes="cssssssssssssssssssssssssssscsssssssssssssssssssssssscscsssssscssssssssssssssssssssssssssscccccssssssssssssssssssssssssssssssssssssssssssssssssscsssssssssssssssssssssssssssssssssssssssssssssssssssssssssssssczs" />
    <path
       style="fill:#86f9a8;fill-opacity:0;stroke:#14a027;stroke-width:2.06444812;stroke-linejoin:round;stroke-miterlimit:4;stroke-dashoffset:0;stroke-opacity:1"
       d="M 45.994237,30.69056 C 45.738559,21.114251 52.716578,11.835257 62.827557,11.593099 C 72.225735,11.368014 80.169546,17.76648 81.444351,26.588282 L 81.607734,28.502795"
       id="path3081"
       sodipodi:nodetypes="cscc" />
    <path
       sodipodi:type="arc"
       style="opacity:1;fill:#86f9a8;fill-opacity:0;stroke:#14a027;stroke-width:1;stroke-linejoin:round;stroke-miterlimit:4;stroke-dasharray:none;stroke-dashoffset:0;stroke-opacity:1"
       id="path3100"
       sodipodi:cx="70.149796"
       sodipodi:cy="52.590508"
       sodipodi:rx="7.6002889"
       sodipodi:ry="8.2118063"
       d="M 77.750084 52.590508 A 7.6002889 8.2118063 0 1 1  62.549507,52.590508 A 7.6002889 8.2118063 0 1 1  77.750084 52.590508 z"
       transform="matrix(2.231281,0,0,1.910089,-55.8491,-73.38585)" />
    <path
       style="fill:none;fill-opacity:0.75;fill-rule:evenodd;stroke:#000000;stroke-width:2.06444812px;stroke-linecap:butt;stroke-linejoin:miter;stroke-opacity:1"
       d="M 65.551482,24.208741 C 66.575364,24.866111 63.066732,22.216451 62.042851,22.873823 C 59.979695,24.198447 60.047624,26.721102 60.48346,28.213493 C 61.311761,31.049764 65.179735,29.532916 65.94133,28.880953 C 68.668955,26.545968 63.530555,24.455885 62.822548,24.54247 C 60.87129,24.781095 69.438689,31.973246 65.551482,24.208741 C 65.002032,23.11124 57.241652,30.303679 63.602242,29.214682"
       id="path3110" />
    <path
       style="fill:none;fill-opacity:0.75;fill-rule:evenodd;stroke:#000000;stroke-width:2.06444812px;stroke-linecap:butt;stroke-linejoin:miter;stroke-opacity:1"
       d="M 101.45832,21.793301 C 100.63026,20.139294 98.12466,24.531466 97.94969,25.130596 C 97.10657,28.017602 98.63499,28.94828 101.06847,29.469077 C 103.01464,29.885581 103.79741,27.059411 103.79741,25.798053 C 103.79741,22.407895 99.50908,20.415145 99.50908,25.130596 C 99.50908,26.613664 105.23559,25.835214 101.45832,21.793301 C 100.0406,20.276245 98.29418,28.840453 99.89893,27.466702 C 100.81781,26.680093 101.65687,25.791855 102.23802,24.796865 C 102.68595,24.029962 100.07452,28.044985 102.62787,25.130596 C 102.8484,24.87888 102.10807,25.575568 101.84817,25.798053"
       id="path3114" />
    <path
       style="fill:none;fill-opacity:0.75;fill-rule:evenodd;stroke:#000000;stroke-width:2.06444812px;stroke-linecap:butt;stroke-linejoin:miter;stroke-opacity:1"
       d="M 101.25958,24.7306 C 101.25958,24.7306 101.25958,24.7306 101.25958,24.7306 z "
       id="path3116" />
    <path
       id="path1311"
       style="fill:#53e22f;fill-opacity:1;stroke:#14a027;stroke-width:2.06444812;stroke-linejoin:round;stroke-miterlimit:4;stroke-dashoffset:0;stroke-opacity:1"
       d="M 81.607734,28.648394 C 81.86341,38.224703 74.120028,45.174125 64.009047,45.416282 C 53.898068,45.65844 46.079834,40.048471 45.913431,30.771811 C 46.091472,30.970144 50.698449,31.826112 51.850426,32.072649 C 54.119784,32.55832 57.927052,32.107092 59.647383,31.738918 C 61.969321,31.241995 63.579766,30.993105 66.274795,30.070272 C 67.929055,29.50382 70.087483,29.736543 72.122514,29.736543 C 74.254297,29.736543 75.321131,30.070272 77.580383,30.070272 C 79.542683,30.070272 80.926854,29.409559 81.607734,28.648394 z "
       sodipodi:nodetypes="cscsssssc" />
  </g>
</svg>
