<?xml version="1.0" encoding="UTF-8" standalone="no"?>
<svg
   xmlns:dc="http://purl.org/dc/elements/1.1/"
   xmlns:cc="http://web.resource.org/cc/"
   xmlns:rdf="http://www.w3.org/1999/02/22-rdf-syntax-ns#"
   xmlns:svg="http://www.w3.org/2000/svg"
   xmlns="http://www.w3.org/2000/svg"
   xmlns:sodipodi="http://sodipodi.sourceforge.net/DTD/sodipodi-0.dtd"
   xmlns:inkscape="http://www.inkscape.org/namespaces/inkscape"
   height="492.41"
   id="svg1507"
   inkscape:version="0.45.1"
   sodipodi:docbase="/media/sda3/workspace/hmm2000/src/sprites"
   sodipodi:docname="heroe.svg"
   sodipodi:version="0.32"
   width="492.41"
   inkscape:output_extension="org.inkscape.output.svg.inkscape"
   version="1.0">
  <metadata
     id="metadata3">
    <rdf:RDF>
      <cc:Work
         rdf:about="">
        <dc:title>AIGA_Symbol_Signs</dc:title>
        <dc:description>EPS converted from  http://aiga.org</dc:description>
        <dc:subject>
          <rdf:Bag>
            <rdf:li>symbol</rdf:li>
            <rdf:li>mapsym</rdf:li>
          </rdf:Bag>
        </dc:subject>
        <dc:publisher>
          <cc:Agent
             rdf:about="http://www.openclipart.org/">
            <dc:title>Open Clip Art Library</dc:title>
          </cc:Agent>
        </dc:publisher>
        <dc:creator>
          <cc:Agent>
            <dc:title>Jean-Victor Balin</dc:title>
          </cc:Agent>
        </dc:creator>
        <dc:rights>
          <cc:Agent>
            <dc:title>Jean-Victor Balin</dc:title>
          </cc:Agent>
        </dc:rights>
        <dc:date />
        <dc:format>image/svg+xml</dc:format>
        <dc:type
           rdf:resource="http://purl.org/dc/dcmitype/StillImage" />
        <cc:license
           rdf:resource="http://web.resource.org/cc/PublicDomain" />
        <dc:language>en</dc:language>
      </cc:Work>
      <cc:License
         rdf:about="http://web.resource.org/cc/PublicDomain">
        <cc:permits
           rdf:resource="http://web.resource.org/cc/Reproduction" />
        <cc:permits
           rdf:resource="http://web.resource.org/cc/Distribution" />
        <cc:permits
           rdf:resource="http://web.resource.org/cc/DerivativeWorks" />
      </cc:License>
    </rdf:RDF>
  </metadata>
  <sodipodi:namedview
     bordercolor="#666666"
     borderopacity="1.0"
     id="base"
     inkscape:current-layer="svg1507"
     inkscape:cx="305.25953"
     inkscape:cy="325.71719"
     inkscape:pageopacity="0.0"
     inkscape:pageshadow="2"
     inkscape:window-height="717"
     inkscape:window-width="919"
     inkscape:window-x="272"
     inkscape:window-y="112"
     inkscape:zoom="0.43415836"
     pagecolor="#ffffff"
     width="492.41px"
     height="492.41px" />
  <defs
     id="defs1509">
    <marker
       id="ArrowEnd"
       markerHeight="3"
       markerUnits="strokeWidth"
       markerWidth="4"
       orient="auto"
       refX="0"
       refY="5"
       viewBox="0 0 10 10">
      <path
         d="M 0,0 L 10,5 L 0,10 L 0,0 z "
         id="path1512" />
    </marker>
    <marker
       id="ArrowStart"
       markerHeight="3"
       markerUnits="strokeWidth"
       markerWidth="4"
       orient="auto"
       refX="10"
       refY="5"
       viewBox="0 0 10 10">
      <path
         d="M 10,0 L 0,5 L 10,10 L 10,0 z "
         id="path1515" />
    </marker>
  </defs>
  <g
     id="g1517"
     transform="matrix(0.8946081,0,0,0.870381,152.07743,31.912665)"
     style="fill:#ff0000">
    <g
       id="g1519"
       style="fill:#ff0000">
      <path
         d="M 95.872,81.671 C 118.422,81.671 136.706,63.387 136.706,40.835 C 136.706,18.284 118.422,0 95.872,0 C 73.319,0 55.038,18.284 55.038,40.835 C 55.038,63.387 73.319,81.671 95.872,81.671 z "
         id="path1521"
         style="fill:#ff0000;stroke:none" />
      <path
         id="path1523"
         style="fill:#ff0000;stroke:none"
         d="" />
    </g>
    <path
       d="M 52.173,90.683 C 23.256,90.683 0,114.267 0,143.683 L 0,269.058 C 0,293.433 35.673,293.433 35.673,269.058 L 35.673,154.416 L 44.118,154.416 L 44.118,468.323 C 44.118,500.913 91.621,499.954 91.621,468.323 L 91.621,286.104 L 99.803,286.104 L 99.803,468.323 C 99.803,499.954 147.567,500.913 147.567,468.323 L 147.567,154.416 L 155.814,154.416 L 155.814,269.058 C 155.814,293.621 191.301,293.62 191.237,269.058 L 191.237,144.433 C 191.237,117.308 170.173,90.739 138.423,90.739 L 52.173,90.683 z "
       id="path1525"
       style="fill:#ff0000;stroke:none" />
  </g>
</svg>
