<?xml version="1.0" encoding="UTF-8" standalone="no"?>
<!-- Created with Inkscape (http://www.inkscape.org/) -->
<svg
   xmlns:svg="http://www.w3.org/2000/svg"
   xmlns="http://www.w3.org/2000/svg"
   version="1.0"
   width="48"
   height="48"
   id="svg2238">
  <defs
     id="defs2240" />
  <g
     id="layer1">
    <path
       d="M 31.857143 30.428572 A 5.9285712 11.857142 0 1 1  20,30.428572 A 5.9285712 11.857142 0 1 1  31.857143 30.428572 z"
       transform="translate(-1.8571429,-1.2857143)"
       style="fill:#008000"
       id="path2252" />
    <path
       d="M 39.285714 20.428572 A 13.714286 13.142858 0 1 1  11.857142,20.428572 A 13.714286 13.142858 0 1 1  39.285714 20.428572 z"
       transform="matrix(0.7285641,0,0,0.7330669,4.9410025,-4.189796)"
       style="fill:#aa4400;fill-rule:evenodd;stroke:#000000;stroke-width:1px;stroke-linecap:butt;stroke-linejoin:miter;stroke-opacity:1"
       id="path2246" />
    <path
       d="M -3.4285716 18.357143 A 1.2857143 1.2142857 0 1 1  -6.0000001,18.357143 A 1.2857143 1.2142857 0 1 1  -3.4285716 18.357143 z"
       transform="translate(24.428571,-10.142857)"
       style="fill:#241c1c"
       id="path2254" />
    <path
       d="M -3.4285716 18.357143 A 1.2857143 1.2142857 0 1 1  -6.0000001,18.357143 A 1.2857143 1.2142857 0 1 1  -3.4285716 18.357143 z"
       transform="translate(32.000001,-10.142858)"
       style="fill:#241c1c"
       id="path2256" />
    <path
       d="M 21.428572 40.642857 A 7.2142859 2.3571429 0 1 1  7,40.642857 A 7.2142859 2.3571429 0 1 1  21.428572 40.642857 z"
       transform="translate(2.5714286,0.4285714)"
       style="fill:#241c1c"
       id="path2258" />
    <path
       d="M 21.428572 40.642857 A 7.2142859 2.3571429 0 1 1  7,40.642857 A 7.2142859 2.3571429 0 1 1  21.428572 40.642857 z"
       transform="translate(17.214286,0.6428576)"
       style="fill:#241c1c"
       id="path2260" />
  </g>
</svg>
