<?xml version="1.0" encoding="UTF-8" standalone="no"?>
<!-- Created with Inkscape (http://www.inkscape.org/) -->
<svg
   xmlns:dc="http://purl.org/dc/elements/1.1/"
   xmlns:cc="http://web.resource.org/cc/"
   xmlns:rdf="http://www.w3.org/1999/02/22-rdf-syntax-ns#"
   xmlns:svg="http://www.w3.org/2000/svg"
   xmlns="http://www.w3.org/2000/svg"
   xmlns:sodipodi="http://sodipodi.sourceforge.net/DTD/sodipodi-0.dtd"
   xmlns:inkscape="http://www.inkscape.org/namespaces/inkscape"
   width="48px"
   height="48px"
   id="svg2160"
   sodipodi:version="0.32"
   inkscape:version="0.45"
   sodipodi:docbase="/media/DATA/workspace/HMM2000/classes/sprites"
   sodipodi:docname="goldresource.svg"
   inkscape:output_extension="org.inkscape.output.svg.inkscape"
   sodipodi:modified="true">
  <defs
     id="defs2162" />
  <sodipodi:namedview
     id="base"
     pagecolor="#ffffff"
     bordercolor="#666666"
     borderopacity="1.0"
     inkscape:pageopacity="0.0"
     inkscape:pageshadow="2"
     inkscape:zoom="7"
     inkscape:cx="24"
     inkscape:cy="24"
     inkscape:current-layer="layer1"
     showgrid="true"
     inkscape:grid-bbox="true"
     inkscape:document-units="px"
     inkscape:window-width="986"
     inkscape:window-height="665"
     inkscape:window-x="5"
     inkscape:window-y="73" />
  <metadata
     id="metadata2165">
    <rdf:RDF>
      <cc:Work
         rdf:about="">
        <dc:format>image/svg+xml</dc:format>
        <dc:type
           rdf:resource="http://purl.org/dc/dcmitype/StillImage" />
      </cc:Work>
    </rdf:RDF>
  </metadata>
  <g
     id="layer1"
     inkscape:label="Layer 1"
     inkscape:groupmode="layer">
    <path
       style="fill:#552200;fill-rule:evenodd;stroke:#000000;stroke-width:1px;stroke-linecap:butt;stroke-linejoin:miter;stroke-opacity:1"
       d="M 0.57142857,47.428571 C 0.98094892,46.67549 1.8654663,44.958383 2.1428571,43.571429 C 2.1813623,43.378903 2.2380952,43.190476 2.2857143,43 C 2.6427499,41.571858 3.9473577,39.305773 5,38.428571 C 6.3161735,37.33176 7.4414129,33.520063 7.8571429,31.857143 C 8.3039854,30.069773 9.5714286,29.101888 9.5714286,26.857143 C 9.5714286,23.23569 11.820435,21.128477 12.714286,18 C 13.144265,16.495073 14.708036,13.960713 15.428571,13 C 17.382731,10.394454 18.099857,6.5645009 20,3.7142857 C 20.93765,2.3078111 23.000037,3.2143043 24.285714,3.8571429 C 26.762735,5.0956534 28.495912,7.7088354 30,9.7142857 C 32.318201,12.805221 34.483291,16.054719 37,18.571429 C 40.439786,22.011215 43.553415,25.47298 46.285714,29.571429 C 48.72859,33.235742 50.623412,37.376719 52.142857,41.428571 C 52.718041,42.962395 53.428571,44.178746 53.428571,45.857143 C 53.428571,47.101259 52.819523,48.180477 52,49 C 50.939267,50.060733 49.779022,49.870527 49,51.428571 C 48.351605,52.72536 46.863316,53.464979 45.714286,54.285714 C 42.100962,56.86666 32.841449,54.625433 29,53.857143 C 25.271189,53.111381 21.885986,52.757211 18.285714,51.857143 C 16.411371,51.388557 14.903999,51.142857 13,51.142857 C 11.743572,51.142857 10.177287,51.260388 9,51.428571 C 7.2081813,51.684546 5.8833895,51.571429 4.2857143,51.571429 C 2.6466948,51.571429 -1.5440467,50.322223 -2.4285714,49.142857 C -3.5877901,47.597232 -2.5167802,47.142857 -1,47.142857 C -0.34944836,47.142857 -0.027748698,47.128983 0.57142857,47.428571 z "
       id="path2196" />
  </g>
</svg>
