<?xml version="1.0" encoding="UTF-8" standalone="no"?>
<!-- Created with Inkscape (http://www.inkscape.org/) -->
<svg
   xmlns:dc="http://purl.org/dc/elements/1.1/"
   xmlns:cc="http://web.resource.org/cc/"
   xmlns:rdf="http://www.w3.org/1999/02/22-rdf-syntax-ns#"
   xmlns:svg="http://www.w3.org/2000/svg"
   xmlns="http://www.w3.org/2000/svg"
   xmlns:xlink="http://www.w3.org/1999/xlink"
   xmlns:sodipodi="http://sodipodi.sourceforge.net/DTD/sodipodi-0.dtd"
   xmlns:inkscape="http://www.inkscape.org/namespaces/inkscape"
   width="5cm"
   height="5cm"
   id="svg2"
   sodipodi:version="0.32"
   inkscape:version="0.45.1"
   version="1.0"
   sodipodi:docbase="/media/sda3/workspace/hmm2000/src/sprites"
   sodipodi:docname="plain.svg"
   inkscape:output_extension="org.inkscape.output.svg.inkscape">
  <defs
     id="defs4">
    <radialGradient
       xlink:href="#linearGradient2057"
       r="8.2519293"
       inkscape:collect="always"
       id="radialGradient2039"
       gradientUnits="userSpaceOnUse"
       gradientTransform="scale(1.39523,0.716728)"
       fy="222.04396"
       fx="14.207293"
       cy="222.04396"
       cx="14.207293" />
    <linearGradient
       inkscape:collect="always"
       id="linearGradient2057">
      <stop
         style="stop-color:#000000;stop-opacity:1;"
         offset="0"
         id="stop2059" />
      <stop
         style="stop-color:#000000;stop-opacity:0;"
         offset="1"
         id="stop2061" />
    </linearGradient>
    <radialGradient
       inkscape:collect="always"
       xlink:href="#linearGradient2057"
       id="radialGradient2375"
       gradientUnits="userSpaceOnUse"
       gradientTransform="scale(1.39523,0.716728)"
       cx="14.207293"
       cy="222.04396"
       fx="14.207293"
       fy="222.04396"
       r="8.2519293" />
    <radialGradient
       inkscape:collect="always"
       xlink:href="#linearGradient2057"
       id="radialGradient2387"
       gradientUnits="userSpaceOnUse"
       gradientTransform="scale(1.39523,0.716728)"
       cx="14.207293"
       cy="222.04396"
       fx="14.207293"
       fy="222.04396"
       r="8.2519293" />
  </defs>
  <sodipodi:namedview
     id="base"
     pagecolor="#ffffff"
     bordercolor="#666666"
     borderopacity="1.0"
     inkscape:pageopacity="0.0"
     inkscape:pageshadow="2"
     inkscape:zoom="2.8617332"
     inkscape:cx="88.58268"
     inkscape:cy="87.614345"
     inkscape:document-units="px"
     inkscape:current-layer="layer1"
     fill="#009900"
     stroke="#006600"
     inkscape:window-width="1280"
     inkscape:window-height="800"
     inkscape:window-x="41"
     inkscape:window-y="65" />
  <metadata
     id="metadata7">
    <rdf:RDF>
      <cc:Work
         rdf:about="">
        <dc:format>image/svg+xml</dc:format>
        <dc:type
           rdf:resource="http://purl.org/dc/dcmitype/StillImage" />
      </cc:Work>
    </rdf:RDF>
  </metadata>
  <g
     inkscape:label="Calque 1"
     inkscape:groupmode="layer"
     id="layer1">
    <g
       inkscape:label="Layer 1"
       id="g2359"
       transform="matrix(0.6825248,0,0,0.6722205,-4.8319964,91.172196)">
      <g
         transform="matrix(2.469674,0,0,2.469674,-44.4758,-526.6608)"
         id="g1944">
        <path
           transform="translate(25.10829,89.00902)"
           style="fill:url(#radialGradient2039);fill-opacity:1;fill-rule:evenodd;stroke:none;stroke-width:2;stroke-miterlimit:4;stroke-opacity:1"
           sodipodi:type="arc"
           sodipodi:ry="4.0807056"
           sodipodi:rx="7.9437737"
           sodipodi:cy="158.69876"
           sodipodi:cx="20.457939"
           id="path1365"
           d="M 28.401713 158.69876 A 7.9437737 4.0807056 0 1 1  12.514165,158.69876 A 7.9437737 4.0807056 0 1 1  28.401713 158.69876 z" />
        <path
           style="fill:#00b300;fill-opacity:1;fill-rule:evenodd;stroke:none;stroke-width:1px;stroke-linecap:butt;stroke-linejoin:miter;stroke-opacity:1"
           sodipodi:nodetypes="ccccccccccccccccccccccccccccccccccccc"
           id="path2857"
           d="M 44.050514,247.51831 C 43.675202,248.01296 42.626503,248.35849 42.594914,247.69836 C 42.481187,246.79722 42.863892,245.23373 42.299697,244.43312 C 41.481571,243.20257 40.364697,242.21432 39.470034,241.04423 C 38.824998,240.44861 37.885682,240.18332 37.437989,239.37877 C 36.539556,238.11258 36.335151,236.47917 36.558564,234.97217 C 36.62611,234.11779 36.640377,233.00137 36.902052,232.17735 C 37.269105,231.85573 37.265113,232.91879 38.077411,233.12482 C 38.983872,233.84269 39.889909,234.05893 40.670441,234.92871 C 41.070755,235.38325 41.480263,235.89897 41.500089,236.53273 C 41.6128,237.68393 41.114024,238.89617 41.631607,239.99757 C 41.942857,240.59945 42.513994,241.00874 42.868172,241.58291 C 43.171752,241.94358 43.274554,242.70743 43.899508,242.57041 C 44.546433,242.44844 44.472177,241.71957 44.631633,241.23302 C 44.950674,239.80313 45.186891,238.32278 45.019502,236.8569 C 44.877442,235.79756 44.453284,234.80743 44.028058,233.83738 C 43.710864,232.94745 43.110154,232.04773 43.356334,231.06388 C 43.541279,230.21288 43.80792,229.32966 44.056538,228.50473 C 44.098487,227.99563 44.480573,226.77909 45.192496,226.94709 C 45.794579,227.1972 46.311658,228.22887 46.568553,228.752 C 46.826041,229.3937 46.790101,230.19032 47.044289,230.83073 C 47.270708,231.85792 46.963261,232.89492 46.864162,233.91775 C 46.650121,235.05194 46.48805,236.21736 46.677413,237.36761 C 46.76747,237.89954 46.791645,238.44302 46.822823,238.95278 C 47.116804,239.41738 47.800346,239.22928 47.915837,238.72773 C 48.469016,237.91728 49.103042,237.15442 49.861657,236.52856 C 50.288415,236.05713 50.177484,235.36859 50.415301,234.82003 C 50.844682,234.24913 51.38722,234.98645 51.386862,235.46304 C 51.467025,235.96246 52.060587,236.33103 52.037277,236.84492 C 52.011078,237.38791 51.543881,237.97177 51.597819,238.52048 C 51.548208,239.16251 51.375563,239.88987 50.835508,240.24103 C 50.188336,240.788 49.310692,241.3533 49.298214,242.26011 C 49.132102,243.12849 48.445805,243.74801 48.036039,244.49885 C 47.766252,244.97676 47.238743,245.19098 46.878019,245.56761 C 46.456296,246.12892 46.578115,246.86968 46.400809,247.5089 C 46.232997,247.98737 45.603366,248.28179 45.162649,247.97355 C 44.798743,247.80969 44.466646,247.52941 44.050514,247.51831 z " />
        <path
           style="fill:#5c2700;fill-opacity:1"
           id="path1639"
           d="M 45.010298,226.3201 C 44.626948,226.32007 43.480178,228.96286 43.135298,230.6326 C 42.813468,232.19069 42.816148,232.39219 43.354048,233.47635 C 44.205288,235.192 44.873488,237.04047 44.854048,237.66385 C 44.844668,237.9643 44.644188,239.13095 44.416548,240.2576 C 44.188908,241.38426 43.985018,242.32024 43.979048,242.35135 C 43.973078,242.38249 43.393588,241.81394 42.697798,241.0701 C 41.354718,239.63427 41.376638,239.70723 41.947798,237.1951 C 42.089438,236.57213 41.900608,236.21866 40.666548,234.91385 C 39.137438,233.29704 38.072618,232.6087 37.479048,232.8201 C 37.275158,232.8927 37.639418,233.27315 38.354048,233.72635 C 39.034438,234.15784 39.962418,234.9211 40.416548,235.41385 C 41.219728,236.28535 41.238388,236.34382 41.072798,238.2576 L 40.916548,240.22635 L 41.822798,241.0701 C 42.323918,241.52781 42.818298,241.91385 42.916548,241.91385 C 43.014778,241.91385 43.334918,242.48155 43.635298,243.1951 C 44.114508,244.33345 44.146878,244.69209 43.885298,246.0701 C 43.721318,246.93387 43.503208,247.6326 43.385298,247.6326 C 43.267368,247.6326 43.166548,247.78857 43.166548,247.97635 C 43.166538,248.18464 43.593748,248.32231 44.260298,248.35135 C 45.907798,248.42313 46.166548,248.51666 46.166548,248.91385 C 46.166538,249.11413 46.297578,249.2576 46.447798,249.2576 C 46.598008,249.2576 46.697788,248.60502 46.697798,247.78885 C 46.697788,246.36143 46.765518,246.25764 47.947798,245.28885 C 48.869728,244.53338 49.166548,244.11001 49.166548,243.53885 C 49.166538,243.04612 49.585668,242.26417 50.354048,241.3201 C 51.804948,239.5375 52.447798,238.31926 52.447798,237.3826 C 52.447788,236.61125 51.811538,235.21928 51.104048,234.41385 C 50.859258,234.13518 50.716438,233.84197 50.791548,233.7576 C 50.866648,233.67323 50.791818,233.5702 50.604048,233.5076 C 50.413958,233.44423 50.261148,233.60382 50.260298,233.8826 C 50.256618,235.0886 49.644048,236.40114 48.510298,237.60135 C 47.838968,238.31203 47.206778,238.8826 47.135298,238.8826 C 47.063808,238.8826 46.926028,238.20876 46.822798,237.3826 C 46.683568,236.26829 46.744378,235.74476 47.041548,235.28885 C 47.261878,234.9508 47.531498,233.78808 47.635298,232.72635 C 47.792758,231.11579 47.719528,230.57897 47.260298,229.5076 C 46.703428,228.20849 45.378288,226.32013 45.010298,226.3201 z M 44.822798,227.53885 C 45.239018,227.28161 45.780698,227.84241 46.416548,229.1951 C 47.135358,230.72435 47.201638,233.60613 46.541548,234.8826 C 46.140898,235.65735 46.124188,236.05513 46.416548,238.5701 C 46.693208,240.95022 46.675768,241.47536 46.354048,241.85135 C 46.143498,242.09738 45.897828,242.55444 45.791548,242.85135 C 45.621208,243.32717 45.676318,243.30434 46.291548,242.72635 C 46.820418,242.2295 46.979058,242.18772 46.979048,242.5076 C 46.979038,242.73979 46.480028,243.44357 45.885298,244.10135 C 44.850988,245.24526 44.803428,245.28573 44.760298,244.6326 C 44.650538,242.97058 44.836558,240.81627 45.229048,239.1326 L 45.666548,237.28885 L 44.541548,234.6951 C 43.927368,233.2576 43.416538,231.906 43.416548,231.6951 C 43.416538,231.01514 44.536038,227.71608 44.822798,227.53885 z M 36.885298,232.0701 C 36.736208,232.0701 36.482838,232.32105 36.291548,232.8201 C 36.112348,233.28756 36.080618,234.47971 36.197798,235.97635 C 36.410688,238.69575 36.675588,239.15065 39.072798,240.97635 C 40.088218,241.74968 40.686008,242.51818 41.322798,243.8201 C 42.273488,245.76379 42.246368,245.69516 42.291548,247.16385 C 42.334438,248.55853 42.805568,248.44204 42.947798,247.0076 C 43.041408,246.06342 42.846438,245.45012 41.979048,243.72635 C 41.115198,242.0096 40.606388,241.39435 39.291548,240.3826 C 38.398818,239.69569 37.493928,238.83291 37.260298,238.47635 C 36.791468,237.76083 36.586888,234.11063 36.947798,232.8201 C 37.087348,232.32105 37.034378,232.0701 36.885298,232.0701 z M 50.760298,235.16385 C 50.980848,235.16104 51.226748,235.46844 51.479048,236.0701 C 52.049488,237.43041 51.836658,238.59825 50.729048,239.9451 C 48.872868,242.20217 48.614378,242.5868 48.604048,243.2576 C 48.596488,243.74838 48.263728,244.1908 47.447798,244.78885 C 45.914928,245.91239 45.072798,246.33833 45.072798,246.0076 C 45.072788,245.8606 45.297158,245.57889 45.572798,245.3826 C 45.848428,245.1863 46.430058,244.52659 46.854048,243.8826 C 47.469138,242.94834 47.611318,242.40816 47.572798,241.3201 C 47.517558,239.75953 47.732588,239.26171 49.041548,237.91385 C 49.557488,237.38253 50.076918,236.56777 50.197798,236.10135 C 50.355048,235.49445 50.539738,235.16666 50.760298,235.16385 z M 45.822798,246.66385 C 46.037588,246.56372 46.166548,246.71208 46.166548,247.0701 C 46.166538,247.52024 46.002268,247.6326 45.354048,247.6326 C 44.456528,247.6326 44.252868,247.2435 45.010298,246.97635 C 45.273168,246.88362 45.635018,246.75138 45.822798,246.66385 z " />
      </g>
    </g>
    <g
       inkscape:label="Layer 1"
       id="g2365"
       transform="matrix(0.772069,0,0,0.8277769,67.338513,-4.3531485)">
      <g
         transform="matrix(2.469674,0,0,2.469674,-44.4758,-526.6608)"
         id="g2367">
        <path
           transform="translate(25.10829,89.00902)"
           style="fill:url(#radialGradient2375);fill-opacity:1;fill-rule:evenodd;stroke:none;stroke-width:2;stroke-miterlimit:4;stroke-opacity:1"
           sodipodi:type="arc"
           sodipodi:ry="4.0807056"
           sodipodi:rx="7.9437737"
           sodipodi:cy="158.69876"
           sodipodi:cx="20.457939"
           id="path2369"
           d="M 28.401713 158.69876 A 7.9437737 4.0807056 0 1 1  12.514165,158.69876 A 7.9437737 4.0807056 0 1 1  28.401713 158.69876 z" />
        <path
           style="fill:#00b300;fill-opacity:1;fill-rule:evenodd;stroke:none;stroke-width:1px;stroke-linecap:butt;stroke-linejoin:miter;stroke-opacity:1"
           sodipodi:nodetypes="ccccccccccccccccccccccccccccccccccccc"
           id="path2371"
           d="M 44.050514,247.51831 C 43.675202,248.01296 42.626503,248.35849 42.594914,247.69836 C 42.481187,246.79722 42.863892,245.23373 42.299697,244.43312 C 41.481571,243.20257 40.364697,242.21432 39.470034,241.04423 C 38.824998,240.44861 37.885682,240.18332 37.437989,239.37877 C 36.539556,238.11258 36.335151,236.47917 36.558564,234.97217 C 36.62611,234.11779 36.640377,233.00137 36.902052,232.17735 C 37.269105,231.85573 37.265113,232.91879 38.077411,233.12482 C 38.983872,233.84269 39.889909,234.05893 40.670441,234.92871 C 41.070755,235.38325 41.480263,235.89897 41.500089,236.53273 C 41.6128,237.68393 41.114024,238.89617 41.631607,239.99757 C 41.942857,240.59945 42.513994,241.00874 42.868172,241.58291 C 43.171752,241.94358 43.274554,242.70743 43.899508,242.57041 C 44.546433,242.44844 44.472177,241.71957 44.631633,241.23302 C 44.950674,239.80313 45.186891,238.32278 45.019502,236.8569 C 44.877442,235.79756 44.453284,234.80743 44.028058,233.83738 C 43.710864,232.94745 43.110154,232.04773 43.356334,231.06388 C 43.541279,230.21288 43.80792,229.32966 44.056538,228.50473 C 44.098487,227.99563 44.480573,226.77909 45.192496,226.94709 C 45.794579,227.1972 46.311658,228.22887 46.568553,228.752 C 46.826041,229.3937 46.790101,230.19032 47.044289,230.83073 C 47.270708,231.85792 46.963261,232.89492 46.864162,233.91775 C 46.650121,235.05194 46.48805,236.21736 46.677413,237.36761 C 46.76747,237.89954 46.791645,238.44302 46.822823,238.95278 C 47.116804,239.41738 47.800346,239.22928 47.915837,238.72773 C 48.469016,237.91728 49.103042,237.15442 49.861657,236.52856 C 50.288415,236.05713 50.177484,235.36859 50.415301,234.82003 C 50.844682,234.24913 51.38722,234.98645 51.386862,235.46304 C 51.467025,235.96246 52.060587,236.33103 52.037277,236.84492 C 52.011078,237.38791 51.543881,237.97177 51.597819,238.52048 C 51.548208,239.16251 51.375563,239.88987 50.835508,240.24103 C 50.188336,240.788 49.310692,241.3533 49.298214,242.26011 C 49.132102,243.12849 48.445805,243.74801 48.036039,244.49885 C 47.766252,244.97676 47.238743,245.19098 46.878019,245.56761 C 46.456296,246.12892 46.578115,246.86968 46.400809,247.5089 C 46.232997,247.98737 45.603366,248.28179 45.162649,247.97355 C 44.798743,247.80969 44.466646,247.52941 44.050514,247.51831 z " />
        <path
           style="fill:#5c2700;fill-opacity:1"
           id="path2373"
           d="M 45.010298,226.3201 C 44.626948,226.32007 43.480178,228.96286 43.135298,230.6326 C 42.813468,232.19069 42.816148,232.39219 43.354048,233.47635 C 44.205288,235.192 44.873488,237.04047 44.854048,237.66385 C 44.844668,237.9643 44.644188,239.13095 44.416548,240.2576 C 44.188908,241.38426 43.985018,242.32024 43.979048,242.35135 C 43.973078,242.38249 43.393588,241.81394 42.697798,241.0701 C 41.354718,239.63427 41.376638,239.70723 41.947798,237.1951 C 42.089438,236.57213 41.900608,236.21866 40.666548,234.91385 C 39.137438,233.29704 38.072618,232.6087 37.479048,232.8201 C 37.275158,232.8927 37.639418,233.27315 38.354048,233.72635 C 39.034438,234.15784 39.962418,234.9211 40.416548,235.41385 C 41.219728,236.28535 41.238388,236.34382 41.072798,238.2576 L 40.916548,240.22635 L 41.822798,241.0701 C 42.323918,241.52781 42.818298,241.91385 42.916548,241.91385 C 43.014778,241.91385 43.334918,242.48155 43.635298,243.1951 C 44.114508,244.33345 44.146878,244.69209 43.885298,246.0701 C 43.721318,246.93387 43.503208,247.6326 43.385298,247.6326 C 43.267368,247.6326 43.166548,247.78857 43.166548,247.97635 C 43.166538,248.18464 43.593748,248.32231 44.260298,248.35135 C 45.907798,248.42313 46.166548,248.51666 46.166548,248.91385 C 46.166538,249.11413 46.297578,249.2576 46.447798,249.2576 C 46.598008,249.2576 46.697788,248.60502 46.697798,247.78885 C 46.697788,246.36143 46.765518,246.25764 47.947798,245.28885 C 48.869728,244.53338 49.166548,244.11001 49.166548,243.53885 C 49.166538,243.04612 49.585668,242.26417 50.354048,241.3201 C 51.804948,239.5375 52.447798,238.31926 52.447798,237.3826 C 52.447788,236.61125 51.811538,235.21928 51.104048,234.41385 C 50.859258,234.13518 50.716438,233.84197 50.791548,233.7576 C 50.866648,233.67323 50.791818,233.5702 50.604048,233.5076 C 50.413958,233.44423 50.261148,233.60382 50.260298,233.8826 C 50.256618,235.0886 49.644048,236.40114 48.510298,237.60135 C 47.838968,238.31203 47.206778,238.8826 47.135298,238.8826 C 47.063808,238.8826 46.926028,238.20876 46.822798,237.3826 C 46.683568,236.26829 46.744378,235.74476 47.041548,235.28885 C 47.261878,234.9508 47.531498,233.78808 47.635298,232.72635 C 47.792758,231.11579 47.719528,230.57897 47.260298,229.5076 C 46.703428,228.20849 45.378288,226.32013 45.010298,226.3201 z M 44.822798,227.53885 C 45.239018,227.28161 45.780698,227.84241 46.416548,229.1951 C 47.135358,230.72435 47.201638,233.60613 46.541548,234.8826 C 46.140898,235.65735 46.124188,236.05513 46.416548,238.5701 C 46.693208,240.95022 46.675768,241.47536 46.354048,241.85135 C 46.143498,242.09738 45.897828,242.55444 45.791548,242.85135 C 45.621208,243.32717 45.676318,243.30434 46.291548,242.72635 C 46.820418,242.2295 46.979058,242.18772 46.979048,242.5076 C 46.979038,242.73979 46.480028,243.44357 45.885298,244.10135 C 44.850988,245.24526 44.803428,245.28573 44.760298,244.6326 C 44.650538,242.97058 44.836558,240.81627 45.229048,239.1326 L 45.666548,237.28885 L 44.541548,234.6951 C 43.927368,233.2576 43.416538,231.906 43.416548,231.6951 C 43.416538,231.01514 44.536038,227.71608 44.822798,227.53885 z M 36.885298,232.0701 C 36.736208,232.0701 36.482838,232.32105 36.291548,232.8201 C 36.112348,233.28756 36.080618,234.47971 36.197798,235.97635 C 36.410688,238.69575 36.675588,239.15065 39.072798,240.97635 C 40.088218,241.74968 40.686008,242.51818 41.322798,243.8201 C 42.273488,245.76379 42.246368,245.69516 42.291548,247.16385 C 42.334438,248.55853 42.805568,248.44204 42.947798,247.0076 C 43.041408,246.06342 42.846438,245.45012 41.979048,243.72635 C 41.115198,242.0096 40.606388,241.39435 39.291548,240.3826 C 38.398818,239.69569 37.493928,238.83291 37.260298,238.47635 C 36.791468,237.76083 36.586888,234.11063 36.947798,232.8201 C 37.087348,232.32105 37.034378,232.0701 36.885298,232.0701 z M 50.760298,235.16385 C 50.980848,235.16104 51.226748,235.46844 51.479048,236.0701 C 52.049488,237.43041 51.836658,238.59825 50.729048,239.9451 C 48.872868,242.20217 48.614378,242.5868 48.604048,243.2576 C 48.596488,243.74838 48.263728,244.1908 47.447798,244.78885 C 45.914928,245.91239 45.072798,246.33833 45.072798,246.0076 C 45.072788,245.8606 45.297158,245.57889 45.572798,245.3826 C 45.848428,245.1863 46.430058,244.52659 46.854048,243.8826 C 47.469138,242.94834 47.611318,242.40816 47.572798,241.3201 C 47.517558,239.75953 47.732588,239.26171 49.041548,237.91385 C 49.557488,237.38253 50.076918,236.56777 50.197798,236.10135 C 50.355048,235.49445 50.539738,235.16666 50.760298,235.16385 z M 45.822798,246.66385 C 46.037588,246.56372 46.166548,246.71208 46.166548,247.0701 C 46.166538,247.52024 46.002268,247.6326 45.354048,247.6326 C 44.456528,247.6326 44.252868,247.2435 45.010298,246.97635 C 45.273168,246.88362 45.635018,246.75138 45.822798,246.66385 z " />
      </g>
    </g>
  </g>
</svg>
