<?xml version="1.0" encoding="UTF-8" standalone="no"?>
<!-- Created with Inkscape (http://www.inkscape.org/) -->
<svg
   xmlns:dc="http://purl.org/dc/elements/1.1/"
   xmlns:cc="http://web.resource.org/cc/"
   xmlns:rdf="http://www.w3.org/1999/02/22-rdf-syntax-ns#"
   xmlns:svg="http://www.w3.org/2000/svg"
   xmlns="http://www.w3.org/2000/svg"
   xmlns:sodipodi="http://inkscape.sourceforge.net/DTD/sodipodi-0.dtd"
   xmlns:inkscape="http://www.inkscape.org/namespaces/inkscape"
   width="5cm"
   height="5cm"
   id="svg2"
   sodipodi:version="0.32"
   inkscape:version="0.43"
   version="1.0"
   sodipodi:docbase="/home/cervelle"
   sodipodi:docname="fleurs.svg">
  <defs
     id="defs4" />
  <sodipodi:namedview
     id="base"
     pagecolor="#ffffff"
     bordercolor="#666666"
     borderopacity="1.0"
     inkscape:pageopacity="0.0"
     inkscape:pageshadow="2"
     inkscape:zoom="2.8382618"
     inkscape:cx="88.582678"
     inkscape:cy="88.582678"
     inkscape:document-units="px"
     inkscape:current-layer="layer1"
     fill="#ffff00"
     inkscape:window-width="1270"
     inkscape:window-height="689"
     inkscape:window-x="0"
     inkscape:window-y="25" />
  <metadata
     id="metadata7">
    <rdf:RDF>
      <cc:Work
         rdf:about="">
        <dc:format>image/svg+xml</dc:format>
        <dc:type
           rdf:resource="http://purl.org/dc/dcmitype/StillImage" />
      </cc:Work>
    </rdf:RDF>
  </metadata>
  <g
     inkscape:label="Calque 1"
     inkscape:groupmode="layer"
     id="layer1">
    <g
       id="g4800"
       transform="translate(-5.637253,4.580268)">
      <path
         sodipodi:nodetypes="csscssscssscssscssscsc"
         id="path1317"
         d="M 44.426123,21.366504 C 43.966208,21.399478 43.481721,21.484008 42.988623,21.585254 C 36.676967,22.881204 32.080272,26.652942 32.832373,34.179004 C 32.952149,35.377566 34.027037,38.769227 34.299719,39.794105 C 32.32502,37.105191 28.796671,32.157391 25.738623,31.460254 C 19.04064,29.933325 13.686674,31.886311 12.832373,38.272754 C 11.978073,44.659197 14.00953,50.255103 21.363623,52.022754 C 23.259601,52.478476 27.134426,52.262366 28.710254,52.235815 C 25.311991,53.005812 19.408819,54.805112 17.488623,57.522754 C 13.524344,63.133369 13.284703,68.83032 18.863623,72.054004 C 24.442543,75.277687 30.395496,75.523226 34.832373,69.397754 C 36.322886,67.339977 37.753199,63.878477 38.325281,62.0625 C 38.656601,65.922651 39.242249,73.397715 42.801123,76.147754 C 48.237111,80.348288 53.904357,80.833742 57.363623,75.397754 C 60.822886,69.961763 61.325042,64.029971 55.394873,59.335254 C 54.898221,58.942071 51.594117,57.376494 51.099364,57.049719 C 53.585796,57.885267 59.040946,59.505459 61.332373,58.804004 C 67.901301,56.793118 71.583955,52.455342 69.144873,46.491504 C 66.705791,40.527664 62.152655,36.706434 54.894873,38.835254 C 53.250531,39.317565 50.777663,41.525554 49.534057,42.220228 C 51.381838,39.496557 54.018695,34.586495 53.676123,31.522754 C 52.972372,25.228858 49.853124,20.977414 44.426123,21.366504 z "
         style="fill:#ffffff;fill-opacity:1;fill-rule:evenodd;stroke:none;stroke-width:0;stroke-linecap:butt;stroke-linejoin:miter;stroke-miterlimit:4;stroke-dasharray:none;stroke-opacity:0" />
      <path
         transform="translate(0.867817,17.13117)"
         d="M 53.114664 34.24498 A 13.802824 13.278666 0 1 1  25.509016,34.24498 A 13.802824 13.278666 0 1 1  53.114664 34.24498 z"
         sodipodi:ry="13.278666"
         sodipodi:rx="13.802824"
         sodipodi:cy="34.24498"
         sodipodi:cx="39.31184"
         id="path1311"
         style="fill:#ffff00;fill-opacity:1;stroke:none;stroke-width:0;stroke-linejoin:round;stroke-miterlimit:4;stroke-dasharray:none;stroke-dashoffset:0;stroke-opacity:1"
         sodipodi:type="arc" />
    </g>
    <g
       id="g4804"
       transform="translate(49.77323,-17.80202)">
      <path
         sodipodi:nodetypes="csscssscssscssscssscsc"
         id="path4806"
         d="M 44.426123,21.366504 C 43.966208,21.399478 43.481721,21.484008 42.988623,21.585254 C 36.676967,22.881204 32.080272,26.652942 32.832373,34.179004 C 32.952149,35.377566 34.027037,38.769227 34.299719,39.794105 C 32.32502,37.105191 28.796671,32.157391 25.738623,31.460254 C 19.04064,29.933325 13.686674,31.886311 12.832373,38.272754 C 11.978073,44.659197 14.00953,50.255103 21.363623,52.022754 C 23.259601,52.478476 27.134426,52.262366 28.710254,52.235815 C 25.311991,53.005812 19.408819,54.805112 17.488623,57.522754 C 13.524344,63.133369 13.284703,68.83032 18.863623,72.054004 C 24.442543,75.277687 30.395496,75.523226 34.832373,69.397754 C 36.322886,67.339977 37.753199,63.878477 38.325281,62.0625 C 38.656601,65.922651 39.242249,73.397715 42.801123,76.147754 C 48.237111,80.348288 53.904357,80.833742 57.363623,75.397754 C 60.822886,69.961763 61.325042,64.029971 55.394873,59.335254 C 54.898221,58.942071 51.594117,57.376494 51.099364,57.049719 C 53.585796,57.885267 59.040946,59.505459 61.332373,58.804004 C 67.901301,56.793118 71.583955,52.455342 69.144873,46.491504 C 66.705791,40.527664 62.152655,36.706434 54.894873,38.835254 C 53.250531,39.317565 50.777663,41.525554 49.534057,42.220228 C 51.381838,39.496557 54.018695,34.586495 53.676123,31.522754 C 52.972372,25.228858 49.853124,20.977414 44.426123,21.366504 z "
         style="fill:#ffffff;fill-opacity:1;fill-rule:evenodd;stroke:none;stroke-width:0;stroke-linecap:butt;stroke-linejoin:miter;stroke-miterlimit:4;stroke-dasharray:none;stroke-opacity:0" />
      <path
         transform="translate(0.867817,17.13117)"
         d="M 53.114664 34.24498 A 13.802824 13.278666 0 1 1  25.509016,34.24498 A 13.802824 13.278666 0 1 1  53.114664 34.24498 z"
         sodipodi:ry="13.278666"
         sodipodi:rx="13.802824"
         sodipodi:cy="34.24498"
         sodipodi:cx="39.31184"
         id="path4808"
         style="fill:#ffff00;fill-opacity:1;stroke:none;stroke-width:0;stroke-linejoin:round;stroke-miterlimit:4;stroke-dasharray:none;stroke-dashoffset:0;stroke-opacity:1"
         sodipodi:type="arc" />
    </g>
    <g
       id="g4810"
       transform="translate(102.4742,9.827869)">
      <path
         sodipodi:nodetypes="csscssscssscssscssscsc"
         id="path4812"
         d="M 44.426123,21.366504 C 43.966208,21.399478 43.481721,21.484008 42.988623,21.585254 C 36.676967,22.881204 32.080272,26.652942 32.832373,34.179004 C 32.952149,35.377566 34.027037,38.769227 34.299719,39.794105 C 32.32502,37.105191 28.796671,32.157391 25.738623,31.460254 C 19.04064,29.933325 13.686674,31.886311 12.832373,38.272754 C 11.978073,44.659197 14.00953,50.255103 21.363623,52.022754 C 23.259601,52.478476 27.134426,52.262366 28.710254,52.235815 C 25.311991,53.005812 19.408819,54.805112 17.488623,57.522754 C 13.524344,63.133369 13.284703,68.83032 18.863623,72.054004 C 24.442543,75.277687 30.395496,75.523226 34.832373,69.397754 C 36.322886,67.339977 37.753199,63.878477 38.325281,62.0625 C 38.656601,65.922651 39.242249,73.397715 42.801123,76.147754 C 48.237111,80.348288 53.904357,80.833742 57.363623,75.397754 C 60.822886,69.961763 61.325042,64.029971 55.394873,59.335254 C 54.898221,58.942071 51.594117,57.376494 51.099364,57.049719 C 53.585796,57.885267 59.040946,59.505459 61.332373,58.804004 C 67.901301,56.793118 71.583955,52.455342 69.144873,46.491504 C 66.705791,40.527664 62.152655,36.706434 54.894873,38.835254 C 53.250531,39.317565 50.777663,41.525554 49.534057,42.220228 C 51.381838,39.496557 54.018695,34.586495 53.676123,31.522754 C 52.972372,25.228858 49.853124,20.977414 44.426123,21.366504 z "
         style="fill:#ffffff;fill-opacity:1;fill-rule:evenodd;stroke:none;stroke-width:0;stroke-linecap:butt;stroke-linejoin:miter;stroke-miterlimit:4;stroke-dasharray:none;stroke-opacity:0" />
      <path
         transform="translate(0.867817,17.13117)"
         d="M 53.114664 34.24498 A 13.802824 13.278666 0 1 1  25.509016,34.24498 A 13.802824 13.278666 0 1 1  53.114664 34.24498 z"
         sodipodi:ry="13.278666"
         sodipodi:rx="13.802824"
         sodipodi:cy="34.24498"
         sodipodi:cx="39.31184"
         id="path4814"
         style="fill:#ffff00;fill-opacity:1;stroke:none;stroke-width:0;stroke-linejoin:round;stroke-miterlimit:4;stroke-dasharray:none;stroke-dashoffset:0;stroke-opacity:1"
         sodipodi:type="arc" />
    </g>
    <g
       id="g4816"
       transform="translate(47.8633,41.53742)">
      <path
         sodipodi:nodetypes="csscssscssscssscssscsc"
         id="path4818"
         d="M 44.426123,21.366504 C 43.966208,21.399478 43.481721,21.484008 42.988623,21.585254 C 36.676967,22.881204 32.080272,26.652942 32.832373,34.179004 C 32.952149,35.377566 34.027037,38.769227 34.299719,39.794105 C 32.32502,37.105191 28.796671,32.157391 25.738623,31.460254 C 19.04064,29.933325 13.686674,31.886311 12.832373,38.272754 C 11.978073,44.659197 14.00953,50.255103 21.363623,52.022754 C 23.259601,52.478476 27.134426,52.262366 28.710254,52.235815 C 25.311991,53.005812 19.408819,54.805112 17.488623,57.522754 C 13.524344,63.133369 13.284703,68.83032 18.863623,72.054004 C 24.442543,75.277687 30.395496,75.523226 34.832373,69.397754 C 36.322886,67.339977 37.753199,63.878477 38.325281,62.0625 C 38.656601,65.922651 39.242249,73.397715 42.801123,76.147754 C 48.237111,80.348288 53.904357,80.833742 57.363623,75.397754 C 60.822886,69.961763 61.325042,64.029971 55.394873,59.335254 C 54.898221,58.942071 51.594117,57.376494 51.099364,57.049719 C 53.585796,57.885267 59.040946,59.505459 61.332373,58.804004 C 67.901301,56.793118 71.583955,52.455342 69.144873,46.491504 C 66.705791,40.527664 62.152655,36.706434 54.894873,38.835254 C 53.250531,39.317565 50.777663,41.525554 49.534057,42.220228 C 51.381838,39.496557 54.018695,34.586495 53.676123,31.522754 C 52.972372,25.228858 49.853124,20.977414 44.426123,21.366504 z "
         style="fill:#ffffff;fill-opacity:1;fill-rule:evenodd;stroke:none;stroke-width:0;stroke-linecap:butt;stroke-linejoin:miter;stroke-miterlimit:4;stroke-dasharray:none;stroke-opacity:0" />
      <path
         transform="translate(0.867817,17.13117)"
         d="M 53.114664 34.24498 A 13.802824 13.278666 0 1 1  25.509016,34.24498 A 13.802824 13.278666 0 1 1  53.114664 34.24498 z"
         sodipodi:ry="13.278666"
         sodipodi:rx="13.802824"
         sodipodi:cy="34.24498"
         sodipodi:cx="39.31184"
         id="path4820"
         style="fill:#ffff00;fill-opacity:1;stroke:none;stroke-width:0;stroke-linejoin:round;stroke-miterlimit:4;stroke-dasharray:none;stroke-dashoffset:0;stroke-opacity:1"
         sodipodi:type="arc" />
    </g>
    <g
       id="g4822"
       transform="translate(-7.099906,67.60971)">
      <path
         sodipodi:nodetypes="csscssscssscssscssscsc"
         id="path4824"
         d="M 44.426123,21.366504 C 43.966208,21.399478 43.481721,21.484008 42.988623,21.585254 C 36.676967,22.881204 32.080272,26.652942 32.832373,34.179004 C 32.952149,35.377566 34.027037,38.769227 34.299719,39.794105 C 32.32502,37.105191 28.796671,32.157391 25.738623,31.460254 C 19.04064,29.933325 13.686674,31.886311 12.832373,38.272754 C 11.978073,44.659197 14.00953,50.255103 21.363623,52.022754 C 23.259601,52.478476 27.134426,52.262366 28.710254,52.235815 C 25.311991,53.005812 19.408819,54.805112 17.488623,57.522754 C 13.524344,63.133369 13.284703,68.83032 18.863623,72.054004 C 24.442543,75.277687 30.395496,75.523226 34.832373,69.397754 C 36.322886,67.339977 37.753199,63.878477 38.325281,62.0625 C 38.656601,65.922651 39.242249,73.397715 42.801123,76.147754 C 48.237111,80.348288 53.904357,80.833742 57.363623,75.397754 C 60.822886,69.961763 61.325042,64.029971 55.394873,59.335254 C 54.898221,58.942071 51.594117,57.376494 51.099364,57.049719 C 53.585796,57.885267 59.040946,59.505459 61.332373,58.804004 C 67.901301,56.793118 71.583955,52.455342 69.144873,46.491504 C 66.705791,40.527664 62.152655,36.706434 54.894873,38.835254 C 53.250531,39.317565 50.777663,41.525554 49.534057,42.220228 C 51.381838,39.496557 54.018695,34.586495 53.676123,31.522754 C 52.972372,25.228858 49.853124,20.977414 44.426123,21.366504 z "
         style="fill:#ffffff;fill-opacity:1;fill-rule:evenodd;stroke:none;stroke-width:0;stroke-linecap:butt;stroke-linejoin:miter;stroke-miterlimit:4;stroke-dasharray:none;stroke-opacity:0" />
      <path
         transform="translate(0.867817,17.13117)"
         d="M 53.114664 34.24498 A 13.802824 13.278666 0 1 1  25.509016,34.24498 A 13.802824 13.278666 0 1 1  53.114664 34.24498 z"
         sodipodi:ry="13.278666"
         sodipodi:rx="13.802824"
         sodipodi:cy="34.24498"
         sodipodi:cx="39.31184"
         id="path4826"
         style="fill:#ffff00;fill-opacity:1;stroke:none;stroke-width:0;stroke-linejoin:round;stroke-miterlimit:4;stroke-dasharray:none;stroke-dashoffset:0;stroke-opacity:1"
         sodipodi:type="arc" />
    </g>
    <g
       id="g4828"
       transform="translate(103.5312,71.83766)">
      <path
         sodipodi:nodetypes="csscssscssscssscssscsc"
         id="path4830"
         d="M 44.426123,21.366504 C 43.966208,21.399478 43.481721,21.484008 42.988623,21.585254 C 36.676967,22.881204 32.080272,26.652942 32.832373,34.179004 C 32.952149,35.377566 34.027037,38.769227 34.299719,39.794105 C 32.32502,37.105191 28.796671,32.157391 25.738623,31.460254 C 19.04064,29.933325 13.686674,31.886311 12.832373,38.272754 C 11.978073,44.659197 14.00953,50.255103 21.363623,52.022754 C 23.259601,52.478476 27.134426,52.262366 28.710254,52.235815 C 25.311991,53.005812 19.408819,54.805112 17.488623,57.522754 C 13.524344,63.133369 13.284703,68.83032 18.863623,72.054004 C 24.442543,75.277687 30.395496,75.523226 34.832373,69.397754 C 36.322886,67.339977 37.753199,63.878477 38.325281,62.0625 C 38.656601,65.922651 39.242249,73.397715 42.801123,76.147754 C 48.237111,80.348288 53.904357,80.833742 57.363623,75.397754 C 60.822886,69.961763 61.325042,64.029971 55.394873,59.335254 C 54.898221,58.942071 51.594117,57.376494 51.099364,57.049719 C 53.585796,57.885267 59.040946,59.505459 61.332373,58.804004 C 67.901301,56.793118 71.583955,52.455342 69.144873,46.491504 C 66.705791,40.527664 62.152655,36.706434 54.894873,38.835254 C 53.250531,39.317565 50.777663,41.525554 49.534057,42.220228 C 51.381838,39.496557 54.018695,34.586495 53.676123,31.522754 C 52.972372,25.228858 49.853124,20.977414 44.426123,21.366504 z "
         style="fill:#ffffff;fill-opacity:1;fill-rule:evenodd;stroke:none;stroke-width:0;stroke-linecap:butt;stroke-linejoin:miter;stroke-miterlimit:4;stroke-dasharray:none;stroke-opacity:0" />
      <path
         transform="translate(0.867817,17.13117)"
         d="M 53.114664 34.24498 A 13.802824 13.278666 0 1 1  25.509016,34.24498 A 13.802824 13.278666 0 1 1  53.114664 34.24498 z"
         sodipodi:ry="13.278666"
         sodipodi:rx="13.802824"
         sodipodi:cy="34.24498"
         sodipodi:cx="39.31184"
         id="path4832"
         style="fill:#ffff00;fill-opacity:1;stroke:none;stroke-width:0;stroke-linejoin:round;stroke-miterlimit:4;stroke-dasharray:none;stroke-dashoffset:0;stroke-opacity:1"
         sodipodi:type="arc" />
    </g>
    <g
       id="g4834"
       transform="translate(41.87372,96.85296)">
      <path
         sodipodi:nodetypes="csscssscssscssscssscsc"
         id="path4836"
         d="M 44.426123,21.366504 C 43.966208,21.399478 43.481721,21.484008 42.988623,21.585254 C 36.676967,22.881204 32.080272,26.652942 32.832373,34.179004 C 32.952149,35.377566 34.027037,38.769227 34.299719,39.794105 C 32.32502,37.105191 28.796671,32.157391 25.738623,31.460254 C 19.04064,29.933325 13.686674,31.886311 12.832373,38.272754 C 11.978073,44.659197 14.00953,50.255103 21.363623,52.022754 C 23.259601,52.478476 27.134426,52.262366 28.710254,52.235815 C 25.311991,53.005812 19.408819,54.805112 17.488623,57.522754 C 13.524344,63.133369 13.284703,68.83032 18.863623,72.054004 C 24.442543,75.277687 30.395496,75.523226 34.832373,69.397754 C 36.322886,67.339977 37.753199,63.878477 38.325281,62.0625 C 38.656601,65.922651 39.242249,73.397715 42.801123,76.147754 C 48.237111,80.348288 53.904357,80.833742 57.363623,75.397754 C 60.822886,69.961763 61.325042,64.029971 55.394873,59.335254 C 54.898221,58.942071 51.594117,57.376494 51.099364,57.049719 C 53.585796,57.885267 59.040946,59.505459 61.332373,58.804004 C 67.901301,56.793118 71.583955,52.455342 69.144873,46.491504 C 66.705791,40.527664 62.152655,36.706434 54.894873,38.835254 C 53.250531,39.317565 50.777663,41.525554 49.534057,42.220228 C 51.381838,39.496557 54.018695,34.586495 53.676123,31.522754 C 52.972372,25.228858 49.853124,20.977414 44.426123,21.366504 z "
         style="fill:#ffffff;fill-opacity:1;fill-rule:evenodd;stroke:none;stroke-width:0;stroke-linecap:butt;stroke-linejoin:miter;stroke-miterlimit:4;stroke-dasharray:none;stroke-opacity:0" />
      <path
         transform="translate(0.867817,17.13117)"
         d="M 53.114664 34.24498 A 13.802824 13.278666 0 1 1  25.509016,34.24498 A 13.802824 13.278666 0 1 1  53.114664 34.24498 z"
         sodipodi:ry="13.278666"
         sodipodi:rx="13.802824"
         sodipodi:cy="34.24498"
         sodipodi:cx="39.31184"
         id="path4838"
         style="fill:#ffff00;fill-opacity:1;stroke:none;stroke-width:0;stroke-linejoin:round;stroke-miterlimit:4;stroke-dasharray:none;stroke-dashoffset:0;stroke-opacity:1"
         sodipodi:type="arc" />
    </g>
  </g>
</svg>
