<?xml version="1.0" encoding="UTF-8" standalone="no"?>
<!-- Created with Inkscape (http://www.inkscape.org/) -->
<svg
   xmlns:dc="http://purl.org/dc/elements/1.1/"
   xmlns:cc="http://web.resource.org/cc/"
   xmlns:rdf="http://www.w3.org/1999/02/22-rdf-syntax-ns#"
   xmlns:svg="http://www.w3.org/2000/svg"
   xmlns="http://www.w3.org/2000/svg"
   xmlns:xlink="http://www.w3.org/1999/xlink"
   xmlns:sodipodi="http://sodipodi.sourceforge.net/DTD/sodipodi-0.dtd"
   xmlns:inkscape="http://www.inkscape.org/namespaces/inkscape"
   width="5cm"
   height="5cm"
   id="svg4147"
   sodipodi:version="0.32"
   inkscape:version="0.45.1"
   version="1.0"
   sodipodi:docbase="/media/sda3/workspace/hmm2000/src/sprites"
   sodipodi:docname="water.svg"
   inkscape:output_extension="org.inkscape.output.svg.inkscape">
  <defs
     id="defs4149">
    <linearGradient
       id="linearGradient5055">
      <stop
         style="stop-color:#3333ec;stop-opacity:1;"
         offset="0"
         id="stop5057" />
      <stop
         style="stop-color:#86f9a8;stop-opacity:0;"
         offset="1"
         id="stop5059" />
    </linearGradient>
    <radialGradient
       inkscape:collect="always"
       xlink:href="#linearGradient5055"
       id="radialGradient1315"
       gradientUnits="userSpaceOnUse"
       gradientTransform="matrix(2.425938,0,0,2.443434,-109.1998,-123.165)"
       cx="78.251694"
       cy="89.794426"
       fx="78.251694"
       fy="89.794426"
       r="28.195824"
       spreadMethod="reflect" />
  </defs>
  <sodipodi:namedview
     id="base"
     pagecolor="#ffffff"
     bordercolor="#666666"
     borderopacity="1.0"
     inkscape:pageopacity="0.0"
     inkscape:pageshadow="2"
     inkscape:zoom="2.274711"
     inkscape:cx="88.582676"
     inkscape:cy="88.582676"
     inkscape:document-units="px"
     inkscape:current-layer="layer1"
     inkscape:window-width="881"
     inkscape:window-height="625"
     inkscape:window-x="10"
     inkscape:window-y="97" />
  <metadata
     id="metadata4152">
    <rdf:RDF>
      <cc:Work
         rdf:about="">
        <dc:format>image/svg+xml</dc:format>
        <dc:type
           rdf:resource="http://purl.org/dc/dcmitype/StillImage" />
      </cc:Work>
    </rdf:RDF>
  </metadata>
  <g
     inkscape:label="Calque 1"
     inkscape:groupmode="layer"
     id="layer1">
    <path
       style="fill:#ffffff;fill-opacity:1;fill-rule:evenodd;stroke:none;stroke-width:2.21637344px;stroke-linecap:butt;stroke-linejoin:miter;stroke-opacity:1"
       d="M 70.382455,11.477737 C 67.689009,11.498119 65.03557,11.818327 62.725586,12.300357 C 57.694494,13.350209 50.764917,15.133367 46.729555,18.501649 C 43.320386,21.347253 34.968652,23.184022 34.968646,27.419631 C 34.968646,27.419631 27.75737,36.916346 24.289625,40.775678 C 20.628102,44.85067 18.440078,50.624352 16.860188,55.899238 C 15.226835,61.352608 13.676143,64.786111 13.676143,71.022796 C 13.676139,78.464744 18.794404,85.359744 20.044232,90.57585 C 21.601638,97.07561 21.82285,101.5011 24.289625,106.64859 C 26.232549,110.70295 28.165937,114.82817 30.733523,119.11445 C 33.094035,123.05505 42.595433,129.59061 46.729555,132.46621 C 51.548772,135.81836 54.598033,141.08253 56.281688,146.70387 C 58.030704,152.54345 64.076034,156.88227 70.155024,160.94153 C 74.159537,163.61557 88.6513,161.66892 93.6563,162.71333 C 101.12274,164.27138 109.25494,161.46742 116.02042,160.05563 C 123.84238,158.42342 132.27983,156.00048 138.46035,152.90517 C 145.03826,149.61085 143.76709,142.78356 143.76709,136.89571 C 143.76709,134.6469 146.12801,130.78708 147.4818,128.28983 L 149.07383,129.74523 C 149.12904,129.69914 152.80347,128.1768 153.39503,126.20164 C 154.28722,123.22287 154.32433,117.72021 155.51773,113.73578 C 157.12137,108.38166 160.82447,103.62627 160.82447,97.72632 C 160.82447,92.008232 161.14472,86.329691 159.76312,81.716861 C 158.60501,77.850148 156.46754,74.380204 154.45638,71.022796 C 151.78007,66.555009 148.73699,62.69466 141.64439,61.21463 C 136.4565,60.132056 126.38226,60.055419 123.52566,57.671035 C 119.89172,54.637812 111.03002,49.804958 109.65233,45.205172 C 108.2923,40.664344 105.7119,38.186986 104.3456,33.625208 C 102.89667,28.787593 100.04619,22.723309 94.71765,19.387548 C 89.06613,15.849592 85.80349,13.778156 78.721618,12.300357 C 76.160167,11.765851 73.249674,11.456038 70.382455,11.477737 z "
       id="path1309"
       sodipodi:nodetypes="csscsssssssssssssccsssssssssssc" />
    <path
       style="fill:url(#radialGradient1315);fill-opacity:1.0;fill-rule:evenodd;stroke:#41b868;stroke-width:2.21637344px;stroke-linecap:butt;stroke-linejoin:miter;stroke-opacity:1"
       d="M 70.167955,12.43449 C 67.474509,12.454872 64.82107,12.77508 62.511086,13.25711 C 57.479994,14.306962 50.550417,16.09012 46.515055,19.458402 C 43.105886,22.304006 34.754152,24.140775 34.754146,28.376384 C 34.754146,28.376384 27.54287,37.873099 24.075125,41.732431 C 20.413602,45.807423 18.225578,51.581105 16.645688,56.855991 C 15.012335,62.309361 13.461643,65.742864 13.461643,71.979549 C 13.461639,79.421497 18.579904,86.316497 19.829732,91.532603 C 21.387138,98.032359 21.60835,102.45785 24.075125,107.60534 C 26.018049,111.6597 27.951437,115.78492 30.519023,120.0712 C 32.879535,124.0118 42.380933,130.54736 46.515055,133.42296 C 51.334272,136.77511 54.383533,142.03928 56.067188,147.66062 C 57.816204,153.5002 63.861534,157.83902 69.940524,161.89828 C 73.945037,164.57232 88.4368,162.62567 93.441802,163.67008 C 100.90824,165.22813 109.04044,162.42417 115.80592,161.01238 C 123.62788,159.38017 132.06533,156.95723 138.24585,153.86192 C 144.82376,150.5676 143.55259,143.74031 143.55259,137.85246 C 143.55259,135.60365 145.91351,131.74383 147.2673,129.24658 L 148.85933,130.70198 C 148.91454,130.65589 152.58897,129.13355 153.18053,127.15839 C 154.07272,124.17962 154.10983,118.67696 155.30323,114.69253 C 156.90687,109.33841 160.60997,104.58302 160.60997,98.683072 C 160.60997,92.964985 160.93022,87.286444 159.54862,82.673614 C 158.39051,78.806901 156.25304,75.336957 154.24188,71.979549 C 151.56557,67.511762 148.52249,63.651413 141.42989,62.171383 C 136.242,61.088809 126.16776,61.012172 123.31116,58.627788 C 119.67722,55.594565 110.81552,50.761711 109.43783,46.161925 C 108.0778,41.621097 105.4974,39.143739 104.1311,34.581961 C 102.68217,29.744346 99.83169,23.680062 94.503154,20.344301 C 88.851635,16.806345 85.588987,14.734909 78.507118,13.25711 C 75.945667,12.722604 73.035174,12.412791 70.167955,12.43449 z "
       id="path4155"
       sodipodi:nodetypes="csscsssssssssssssccsssssssssssc" />
  </g>
</svg>
