<?xml version="1.0" encoding="UTF-8" standalone="no"?>
<!-- Created with Inkscape (http://www.inkscape.org/) -->
<svg
   xmlns:dc="http://purl.org/dc/elements/1.1/"
   xmlns:cc="http://web.resource.org/cc/"
   xmlns:rdf="http://www.w3.org/1999/02/22-rdf-syntax-ns#"
   xmlns:svg="http://www.w3.org/2000/svg"
   xmlns="http://www.w3.org/2000/svg"
   xmlns:sodipodi="http://sodipodi.sourceforge.net/DTD/sodipodi-0.dtd"
   xmlns:inkscape="http://www.inkscape.org/namespaces/inkscape"
   width="5cm"
   height="5cm"
   id="svg2"
   sodipodi:version="0.32"
   inkscape:version="0.45"
   version="1.0"
   sodipodi:docbase="/media/DATA/workspace/HMM2000/classes/sprites"
   sodipodi:docname="plain.svg"
   inkscape:output_extension="org.inkscape.output.svg.inkscape"
   sodipodi:modified="true">
  <defs
     id="defs4" />
  <sodipodi:namedview
     id="base"
     pagecolor="#ffffff"
     bordercolor="#666666"
     borderopacity="1.0"
     inkscape:pageopacity="0.0"
     inkscape:pageshadow="2"
     inkscape:zoom="2.8617332"
     inkscape:cx="88.58268"
     inkscape:cy="88.58268"
     inkscape:document-units="px"
     inkscape:current-layer="layer1"
     fill="#009900"
     stroke="#006600"
     inkscape:window-width="1280"
     inkscape:window-height="693"
     inkscape:window-x="5"
     inkscape:window-y="49" />
  <metadata
     id="metadata7">
    <rdf:RDF>
      <cc:Work
         rdf:about="">
        <dc:format>image/svg+xml</dc:format>
        <dc:type
           rdf:resource="http://purl.org/dc/dcmitype/StillImage" />
      </cc:Work>
    </rdf:RDF>
  </metadata>
  <g
     inkscape:label="Calque 1"
     inkscape:groupmode="layer"
     id="layer1">
    <path
       style="fill:none;fill-opacity:0.75;fill-rule:evenodd;stroke:#006600;stroke-width:1px;stroke-linecap:butt;stroke-linejoin:miter;stroke-opacity:1"
       d="M 15.375297,17.12249 C 18.924388,23.020367 18.364275,36.422582 16.423613,46.125892 C 15.578143,50.353244 13.930318,55.097981 13.278666,58.356243"
       id="path3259" />
    <path
       style="fill:none;fill-opacity:0.75;fill-rule:evenodd;stroke:#006600;stroke-width:1px;stroke-linecap:butt;stroke-linejoin:miter;stroke-opacity:1"
       d="M 34.244981,28.653963 C 32.625411,36.751813 34.943858,48.383008 34.943858,56.958488"
       id="path3261" />
    <path
       style="fill:none;fill-opacity:0.75;fill-rule:evenodd;stroke:#006600;stroke-width:1px;stroke-linecap:butt;stroke-linejoin:miter;stroke-opacity:1"
       d="M 63.248383,36.341612 C 62.192591,41.620572 61.022236,51.548287 62.200067,56.259611"
       id="path3263" />
    <path
       style="fill:none;fill-opacity:0.75;fill-rule:evenodd;stroke:#006600;stroke-width:1px;stroke-linecap:butt;stroke-linejoin:miter;stroke-opacity:1"
       d="M 98.541679,30.401156 C 97.074524,37.736931 97.081319,50.068731 98.891118,57.307927"
       id="path3265" />
    <path
       style="fill:none;fill-opacity:0.75;fill-rule:evenodd;stroke:#006600;stroke-width:1px;stroke-linecap:butt;stroke-linejoin:miter;stroke-opacity:1"
       d="M 125.09901,31.100034 C 124.98863,31.651954 129.45802,39.634358 129.99115,41.233752 C 131.70398,46.372232 130.69003,53.247748 130.69003,58.705681"
       id="path3267" />
    <path
       style="fill:none;fill-opacity:0.75;fill-rule:evenodd;stroke:#006600;stroke-width:1px;stroke-linecap:butt;stroke-linejoin:miter;stroke-opacity:1"
       d="M 109.72371,35.293296 C 112.07689,42.35284 108.66344,50.204891 111.82035,57.307927"
       id="path3269" />
    <path
       style="fill:none;fill-opacity:0.75;fill-rule:evenodd;stroke:#006600;stroke-width:1px;stroke-linecap:butt;stroke-linejoin:miter;stroke-opacity:1"
       d="M 75.129294,39.486559 C 77.718167,45.311523 77.761574,53.581371 76.527049,59.753997"
       id="path3271" />
    <path
       style="fill:none;fill-opacity:0.75;fill-rule:evenodd;stroke:#006600;stroke-width:1px;stroke-linecap:butt;stroke-linejoin:miter;stroke-opacity:1"
       d="M 49.620278,40.185437 C 50.688539,42.589022 46.66106,55.352986 45.776454,58.006804"
       id="path3273" />
    <path
       style="fill:none;fill-opacity:0.75;fill-rule:evenodd;stroke:#006600;stroke-width:1px;stroke-linecap:butt;stroke-linejoin:miter;stroke-opacity:1"
       d="M 25.509016,74.080979 C 26.858711,77.117793 22.873829,82.553894 22.364069,85.612452"
       id="path3275" />
    <path
       style="fill:none;fill-opacity:0.75;fill-rule:evenodd;stroke:#006600;stroke-width:1px;stroke-linecap:butt;stroke-linejoin:miter;stroke-opacity:1"
       d="M 37.739367,83.51582 C 37.739367,83.51582 37.739367,83.51582 37.739367,83.51582 z "
       id="path3277" />
    <path
       style="fill:none;fill-opacity:0.75;fill-rule:evenodd;stroke:#006600;stroke-width:1px;stroke-linecap:butt;stroke-linejoin:miter;stroke-opacity:1"
       d="M 78.973119,69.538277 C 79.939563,71.712776 76.395733,80.546696 75.828172,82.816943"
       id="path3279" />
    <path
       style="fill:none;fill-opacity:0.75;fill-rule:evenodd;stroke:#006600;stroke-width:1px;stroke-linecap:butt;stroke-linejoin:miter;stroke-opacity:1"
       d="M 105.53045,80.370873 C 106.53561,82.63249 106.22933,87.39525 106.22933,90.155153"
       id="path3281" />
    <path
       style="fill:none;fill-opacity:0.75;fill-rule:evenodd;stroke:#006600;stroke-width:1px;stroke-linecap:butt;stroke-linejoin:miter;stroke-opacity:1"
       d="M 46.125892,71.28547 C 46.870001,72.959715 43.8087,94.531785 42.980945,97.842802"
       id="path3283" />
    <path
       style="fill:none;fill-opacity:0.75;fill-rule:evenodd;stroke:#006600;stroke-width:1px;stroke-linecap:butt;stroke-linejoin:miter;stroke-opacity:1"
       d="M 28.304525,111.47091 C 30.497787,116.40575 21.732841,135.66101 20.267438,141.52262"
       id="path3285" />
    <path
       style="fill:none;fill-opacity:0.75;fill-rule:evenodd;stroke:#006600;stroke-width:1px;stroke-linecap:butt;stroke-linejoin:miter;stroke-opacity:1"
       d="M 5.9404558,132.43722 C 6.9165675,134.63347 4.6428911,142.86906 4.1932629,144.66757"
       id="path3287" />
    <path
       style="fill:none;fill-opacity:0.75;fill-rule:evenodd;stroke:#006600;stroke-width:1px;stroke-linecap:butt;stroke-linejoin:miter;stroke-opacity:1"
       d="M 12.929227,90.155153 C 14.628079,93.977568 13.249074,103.55219 12.23035,107.62708"
       id="path3289" />
    <path
       style="fill:none;fill-opacity:0.75;fill-rule:evenodd;stroke:#006600;stroke-width:1px;stroke-linecap:butt;stroke-linejoin:miter;stroke-opacity:1"
       d="M 35.293296,98.541679 C 36.743967,101.80569 32.706421,110.84501 31.798911,113.56754"
       id="path3291" />
    <path
       style="fill:none;fill-opacity:0.75;fill-rule:evenodd;stroke:#006600;stroke-width:1px;stroke-linecap:butt;stroke-linejoin:miter;stroke-opacity:1"
       d="M 47.174208,125.44845 C 48.367282,128.13287 47.873085,131.31308 47.873085,134.18441"
       id="path3293" />
    <path
       style="fill:none;fill-opacity:0.75;fill-rule:evenodd;stroke:#006600;stroke-width:1px;stroke-linecap:butt;stroke-linejoin:miter;stroke-opacity:1"
       d="M 67.092207,85.612452 C 69.821626,91.753644 68.33612,101.01522 69.538277,107.62708"
       id="path3295" />
    <path
       style="fill:none;fill-opacity:0.75;fill-rule:evenodd;stroke:#006600;stroke-width:1px;stroke-linecap:butt;stroke-linejoin:miter;stroke-opacity:1"
       d="M 58.356243,87.709083 C 58.846622,88.812436 57.61114,95.278421 57.307927,96.794486"
       id="path3297" />
    <path
       style="fill:none;fill-opacity:0.75;fill-rule:evenodd;stroke:#006600;stroke-width:1px;stroke-linecap:butt;stroke-linejoin:miter;stroke-opacity:1"
       d="M 49.969717,108.32596 C 50.8567,110.32167 47.290711,113.8004 46.82477,115.66417"
       id="path3299" />
    <path
       style="fill:none;fill-opacity:0.75;fill-rule:evenodd;stroke:#006600;stroke-width:1px;stroke-linecap:butt;stroke-linejoin:miter;stroke-opacity:1"
       d="M 56.958488,120.90575 C 58.269242,123.85494 58.356243,130.7791 58.356243,134.18441"
       id="path3301" />
    <path
       style="fill:none;fill-opacity:0.75;fill-rule:evenodd;stroke:#006600;stroke-width:1px;stroke-linecap:butt;stroke-linejoin:miter;stroke-opacity:1"
       d="M 80.021435,118.45968 C 80.832184,120.28386 80.597057,122.8588 81.06975,124.74957"
       id="path3303" />
    <path
       style="fill:none;fill-opacity:0.75;fill-rule:evenodd;stroke:#006600;stroke-width:1px;stroke-linecap:butt;stroke-linejoin:miter;stroke-opacity:1"
       d="M 90.504592,97.842802 C 91.965191,101.12915 91.203469,105.83437 91.203469,109.37428"
       id="path3305" />
    <path
       style="fill:none;fill-opacity:0.75;fill-rule:evenodd;stroke:#006600;stroke-width:1px;stroke-linecap:butt;stroke-linejoin:miter;stroke-opacity:1"
       d="M 83.865259,111.12147 C 84.480424,112.50559 83.865259,109.58115 83.865259,112.51922"
       id="path3307" />
    <path
       style="fill:none;fill-opacity:0.75;fill-rule:evenodd;stroke:#006600;stroke-width:1px;stroke-linecap:butt;stroke-linejoin:miter;stroke-opacity:1"
       d="M 95.396732,76.527049 C 97.0773,80.308328 94.416746,87.367433 93.649539,91.203469"
       id="path3309" />
    <path
       style="fill:none;fill-opacity:0.75;fill-rule:evenodd;stroke:#006600;stroke-width:1px;stroke-linecap:butt;stroke-linejoin:miter;stroke-opacity:1"
       d="M 116.71249,75.129294 C 117.98192,77.98552 118.11024,81.124274 118.11024,84.214698"
       id="path3311" />
    <path
       style="fill:none;fill-opacity:0.75;fill-rule:evenodd;stroke:#006600;stroke-width:1px;stroke-linecap:butt;stroke-linejoin:miter;stroke-opacity:1"
       d="M 82.118066,91.902346 C 84.000784,96.138461 80.369979,103.08974 79.671996,107.27764"
       id="path3313" />
    <path
       style="fill:none;fill-opacity:0.75;fill-rule:evenodd;stroke:#006600;stroke-width:1px;stroke-linecap:butt;stroke-linejoin:miter;stroke-opacity:1"
       d="M 62.549506,123.35182 C 63.449103,125.37591 62.549506,129.81622 62.549506,132.08778"
       id="path3315" />
    <path
       style="fill:none;fill-opacity:0.75;fill-rule:evenodd;stroke:#006600;stroke-width:1px;stroke-linecap:butt;stroke-linejoin:miter;stroke-opacity:1"
       d="M 47.873085,145.01701 C 49.513827,148.70868 44.700079,155.28235 43.330384,158.29568"
       id="path3317" />
    <path
       style="fill:none;fill-opacity:0.75;fill-rule:evenodd;stroke:#006600;stroke-width:1px;stroke-linecap:butt;stroke-linejoin:miter;stroke-opacity:1"
       d="M 32.148349,159.69343 C 32.65616,160.836 30.019473,165.89514 28.653963,168.07996"
       id="path3319" />
    <path
       style="fill:none;fill-opacity:0.75;fill-rule:evenodd;stroke:#006600;stroke-width:1px;stroke-linecap:butt;stroke-linejoin:miter;stroke-opacity:1"
       d="M 21.315753,160.74175 C 22.237414,162.81548 19.984027,166.70836 19.219122,168.4294"
       id="path3321" />
    <path
       style="fill:none;fill-opacity:0.75;fill-rule:evenodd;stroke:#006600;stroke-width:1px;stroke-linecap:butt;stroke-linejoin:miter;stroke-opacity:1"
       d="M 17.12249,143.96869 C 18.412967,146.87227 13.14453,155.36546 11.531473,157.24736"
       id="path3323" />
    <path
       style="fill:none;fill-opacity:0.75;fill-rule:evenodd;stroke:#006600;stroke-width:1px;stroke-linecap:butt;stroke-linejoin:miter;stroke-opacity:1"
       d="M 32.847226,141.52262 C 33.040663,141.95786 31.588983,145.36777 31.449472,146.06533"
       id="path3325" />
    <path
       style="fill:none;fill-opacity:0.75;fill-rule:evenodd;stroke:#006600;stroke-width:1px;stroke-linecap:butt;stroke-linejoin:miter;stroke-opacity:1"
       d="M 40.534875,124.0507 C 41.289737,125.74913 37.368562,131.47437 37.040489,132.78666"
       id="path3327" />
    <path
       style="fill:none;fill-opacity:0.75;fill-rule:evenodd;stroke:#006600;stroke-width:1px;stroke-linecap:butt;stroke-linejoin:miter;stroke-opacity:1"
       d="M 60.452874,141.17319 C 61.606855,143.76964 60.452874,149.68078 60.452874,152.70466"
       id="path3329" />
    <path
       style="fill:none;fill-opacity:0.75;fill-rule:evenodd;stroke:#006600;stroke-width:1px;stroke-linecap:butt;stroke-linejoin:miter;stroke-opacity:1"
       d="M 49.620278,156.89792 C 50.804386,159.56216 46.288043,169.07233 45.427015,171.2249"
       id="path3331" />
    <path
       style="fill:none;fill-opacity:0.75;fill-rule:evenodd;stroke:#006600;stroke-width:1px;stroke-linecap:butt;stroke-linejoin:miter;stroke-opacity:1"
       d="M 59.05512,161.09118 C 59.728728,162.6068 58.342375,168.5126 58.006804,170.52603"
       id="path3333" />
    <path
       style="fill:none;fill-opacity:0.75;fill-rule:evenodd;stroke:#006600;stroke-width:1px;stroke-linecap:butt;stroke-linejoin:miter;stroke-opacity:1"
       d="M 80.021435,135.23273 C 81.433134,138.40905 79.138488,146.45217 78.274242,149.90915"
       id="path3335" />
    <path
       style="fill:none;fill-opacity:0.75;fill-rule:evenodd;stroke:#006600;stroke-width:1px;stroke-linecap:butt;stroke-linejoin:miter;stroke-opacity:1"
       d="M 76.17761,160.04287 C 76.691954,161.20014 76.033416,163.20991 75.828172,164.23613"
       id="path3337" />
    <path
       style="fill:none;fill-opacity:0.75;fill-rule:evenodd;stroke:#006600;stroke-width:1px;stroke-linecap:butt;stroke-linejoin:miter;stroke-opacity:1"
       d="M 67.791084,126.49677 C 67.994046,126.95343 67.791084,130.45583 67.791084,132.08778"
       id="path3339" />
    <path
       style="fill:none;fill-opacity:0.75;fill-rule:evenodd;stroke:#006600;stroke-width:1px;stroke-linecap:butt;stroke-linejoin:miter;stroke-opacity:1"
       d="M 69.188839,142.92038 C 70.090074,144.94816 68.864329,148.03731 68.489961,149.90915"
       id="path3341" />
    <path
       style="fill:#009900;fill-opacity:0.75;fill-rule:evenodd;stroke:#006600;stroke-width:1px;stroke-linecap:butt;stroke-linejoin:miter;stroke-opacity:1"
       d="M 69.188839,155.84961 C 69.232252,155.94729 68.618184,158.8311 68.140523,160.74175"
       id="path3343" />
    <path
       style="fill:none;fill-opacity:0.75;fill-rule:evenodd;stroke:#006600;stroke-width:1px;stroke-linecap:butt;stroke-linejoin:miter;stroke-opacity:1"
       d="M 92.251785,118.45968 C 92.724853,119.52408 92.251785,120.78927 92.251785,121.95406 C 92.251785,123.36451 90.393783,127.7667 89.805715,128.94284"
       id="path3345" />
    <path
       style="fill:none;fill-opacity:0.75;fill-rule:evenodd;stroke:#006600;stroke-width:1px;stroke-linecap:butt;stroke-linejoin:miter;stroke-opacity:1"
       d="M 90.504592,135.58217 C 90.504592,137.83425 89.291226,140.43563 88.757399,142.57094"
       id="path3347" />
    <path
       style="fill:none;fill-opacity:0.75;fill-rule:evenodd;stroke:#006600;stroke-width:1px;stroke-linecap:butt;stroke-linejoin:miter;stroke-opacity:1"
       d="M 88.40796,152.00578 C 88.40796,154.52878 87.951368,156.9771 87.359645,159.34399"
       id="path3349" />
    <path
       style="fill:none;fill-opacity:0.75;fill-rule:evenodd;stroke:#006600;stroke-width:1px;stroke-linecap:butt;stroke-linejoin:miter;stroke-opacity:1"
       d="M 82.467505,164.93501 C 82.467505,165.6062 81.745072,168.17418 81.419189,169.47771"
       id="path3351" />
    <path
       style="fill:none;fill-opacity:0.75;fill-rule:evenodd;stroke:#006600;stroke-width:1px;stroke-linecap:butt;stroke-linejoin:miter;stroke-opacity:1"
       d="M 95.047293,164.58557 C 95.047293,165.4911 92.713055,168.90461 92.251785,169.82715"
       id="path3353" />
    <path
       style="fill:none;fill-opacity:0.75;fill-rule:evenodd;stroke:#006600;stroke-width:1px;stroke-linecap:butt;stroke-linejoin:miter;stroke-opacity:1"
       d="M 98.192241,143.96869 C 98.192241,145.48518 96.033731,149.71441 95.396732,151.3069"
       id="path3355" />
    <path
       style="fill:none;fill-opacity:0.75;fill-rule:evenodd;stroke:#006600;stroke-width:1px;stroke-linecap:butt;stroke-linejoin:miter;stroke-opacity:1"
       d="M 100.28887,134.88329 C 100.28887,136.3055 99.156049,138.45458 98.891118,139.42599"
       id="path3357" />
    <path
       style="fill:none;fill-opacity:0.75;fill-rule:evenodd;stroke:#006600;stroke-width:1px;stroke-linecap:butt;stroke-linejoin:miter;stroke-opacity:1"
       d="M 104.1327,109.72371 C 104.1327,110.27165 104.03721,110.80454 103.43382,113.2181"
       id="path3359" />
    <path
       style="fill:none;fill-opacity:0.75;fill-rule:evenodd;stroke:#006600;stroke-width:1px;stroke-linecap:butt;stroke-linejoin:miter;stroke-opacity:1"
       d="M 98.541679,103.43382 C 98.541679,105.21882 98.652181,104.15063 97.842802,106.57877"
       id="path3361" />
    <path
       style="fill:none;fill-opacity:0.75;fill-rule:evenodd;stroke:#006600;stroke-width:1px;stroke-linecap:butt;stroke-linejoin:miter;stroke-opacity:1"
       d="M 99.589995,129.29227 C 99.589995,131.77371 100.27222,125.88113 99.240556,131.03947"
       id="path3363" />
    <path
       style="fill:none;fill-opacity:0.75;fill-rule:evenodd;stroke:#006600;stroke-width:1px;stroke-linecap:butt;stroke-linejoin:miter;stroke-opacity:1"
       d="M 108.32596,98.192241 C 108.32596,99.757414 107.65589,101.57139 107.27764,103.08438"
       id="path3365" />
    <path
       style="fill:none;fill-opacity:0.75;fill-rule:evenodd;stroke:#006600;stroke-width:1px;stroke-linecap:butt;stroke-linejoin:miter;stroke-opacity:1"
       d="M 62.549506,67.791084 C 62.549506,72.391234 61.073042,77.191326 60.103436,81.06975"
       id="path3367" />
    <path
       style="fill:none;fill-opacity:0.75;fill-rule:evenodd;stroke:#006600;stroke-width:1px;stroke-linecap:butt;stroke-linejoin:miter;stroke-opacity:1"
       d="M 34.244981,83.865259 C 34.244981,86.050244 33.087209,88.976311 32.148349,90.854031"
       id="path3369" />
    <path
       style="fill:none;fill-opacity:0.75;fill-rule:evenodd;stroke:#006600;stroke-width:1px;stroke-linecap:butt;stroke-linejoin:miter;stroke-opacity:1"
       d="M 13.278666,74.080979 C 13.278666,75.110996 13.163439,75.590202 12.929227,76.527049"
       id="path3371" />
    <path
       style="fill:none;fill-opacity:0.75;fill-rule:evenodd;stroke:#006600;stroke-width:1px;stroke-linecap:butt;stroke-linejoin:miter;stroke-opacity:1"
       d="M 35.642735,63.94726 C 35.642735,67.653337 34.79865,72.565179 33.895542,76.17761"
       id="path3373" />
    <path
       style="fill:none;fill-opacity:0.75;fill-rule:evenodd;stroke:#006600;stroke-width:1px;stroke-linecap:butt;stroke-linejoin:miter;stroke-opacity:1"
       d="M 31.100034,8.7359645 C 31.100034,14.031485 31.066356,18.271839 29.352841,23.412385"
       id="path3375" />
    <path
       style="fill:none;fill-opacity:0.75;fill-rule:evenodd;stroke:#006600;stroke-width:1px;stroke-linecap:butt;stroke-linejoin:miter;stroke-opacity:1"
       d="M 47.873085,23.062946 C 47.873085,29.499686 46.299335,33.986093 44.3787,38.787682"
       id="path3377" />
    <path
       style="fill:none;fill-opacity:0.75;fill-rule:evenodd;stroke:#006600;stroke-width:1px;stroke-linecap:butt;stroke-linejoin:miter;stroke-opacity:1"
       d="M 64.995576,21.315753 C 64.995576,24.95169 63.752342,30.195129 61.50119,33.196665"
       id="path3379" />
    <path
       style="fill:none;fill-opacity:0.75;fill-rule:evenodd;stroke:#006600;stroke-width:1px;stroke-linecap:butt;stroke-linejoin:miter;stroke-opacity:1"
       d="M 54.861857,7.3382102 C 54.861857,10.150136 53.6362,14.945054 52.765225,17.12249"
       id="path3381" />
    <path
       style="fill:none;fill-opacity:0.75;fill-rule:evenodd;stroke:#006600;stroke-width:1px;stroke-linecap:butt;stroke-linejoin:miter;stroke-opacity:1"
       d="M 76.17761,7.6876487 C 76.17761,10.799736 76.303254,14.271999 75.828172,17.12249"
       id="path3383" />
    <path
       style="fill:none;fill-opacity:0.75;fill-rule:evenodd;stroke:#006600;stroke-width:1px;stroke-linecap:butt;stroke-linejoin:miter;stroke-opacity:1"
       d="M 79.322557,30.401156 C 79.322557,31.682431 79.322557,32.963706 79.322557,34.244981"
       id="path3385" />
    <path
       style="fill:none;fill-opacity:0.75;fill-rule:evenodd;stroke:#006600;stroke-width:1px;stroke-linecap:butt;stroke-linejoin:miter;stroke-opacity:1"
       d="M 90.155153,37.389928 C 90.155153,40.619867 90.42549,44.07533 89.805715,47.174208"
       id="path3387" />
    <path
       style="fill:none;fill-opacity:0.75;fill-rule:evenodd;stroke:#006600;stroke-width:1px;stroke-linecap:butt;stroke-linejoin:miter;stroke-opacity:1"
       d="M 88.058522,56.958488 C 88.058522,61.736137 88.121982,67.187804 87.010206,71.634909"
       id="path3389" />
    <path
       style="fill:none;fill-opacity:0.75;fill-rule:evenodd;stroke:#006600;stroke-width:1px;stroke-linecap:butt;stroke-linejoin:miter;stroke-opacity:1"
       d="M 107.27764,63.597821 C 107.27764,65.565879 106.34376,67.682811 105.87989,69.538277"
       id="path3391" />
    <path
       style="fill:none;fill-opacity:0.75;fill-rule:evenodd;stroke:#006600;stroke-width:1px;stroke-linecap:butt;stroke-linejoin:miter;stroke-opacity:1"
       d="M 123.00238,64.296699 C 123.00238,66.245696 122.69196,68.294878 122.3035,70.237154"
       id="path3393" />
    <path
       style="fill:none;fill-opacity:0.75;fill-rule:evenodd;stroke:#006600;stroke-width:1px;stroke-linecap:butt;stroke-linejoin:miter;stroke-opacity:1"
       d="M 121.95406,94.348416 C 121.95406,104.58749 118.57477,115.15573 122.3035,125.09901"
       id="path4472" />
    <path
       style="fill:none;fill-opacity:0.75;fill-rule:evenodd;stroke:#006600;stroke-width:1px;stroke-linecap:butt;stroke-linejoin:miter;stroke-opacity:1"
       d="M 114.61585,124.0507 C 114.61585,131.52495 116.71249,138.79422 116.71249,146.41476"
       id="path4474" />
    <path
       style="fill:none;fill-opacity:0.75;fill-rule:evenodd;stroke:#006600;stroke-width:1px;stroke-linecap:butt;stroke-linejoin:miter;stroke-opacity:1"
       d="M 108.6754,152.35522 C 108.6754,158.31897 109.02484,164.16819 109.02484,170.17659"
       id="path4476" />
    <path
       style="fill:none;fill-opacity:0.75;fill-rule:evenodd;stroke:#006600;stroke-width:1px;stroke-linecap:butt;stroke-linejoin:miter;stroke-opacity:1"
       d="M 128.5934,154.45185 C 128.5934,158.06655 128.62113,161.88987 128.24396,165.28445"
       id="path4478" />
    <path
       style="fill:none;fill-opacity:0.75;fill-rule:evenodd;stroke:#006600;stroke-width:1px;stroke-linecap:butt;stroke-linejoin:miter;stroke-opacity:1"
       d="M 123.70126,131.38891 C 123.70126,134.34125 124.07096,137.75984 124.74957,140.47431"
       id="path4480" />
    <path
       style="fill:none;fill-opacity:0.75;fill-rule:evenodd;stroke:#006600;stroke-width:1px;stroke-linecap:butt;stroke-linejoin:miter;stroke-opacity:1"
       d="M 138.72712,131.03947 C 138.72712,134.22382 140.96056,139.06916 142.2215,142.2215"
       id="path4482" />
    <path
       style="fill:none;fill-opacity:0.75;fill-rule:evenodd;stroke:#006600;stroke-width:1px;stroke-linecap:butt;stroke-linejoin:miter;stroke-opacity:1"
       d="M 152.00578,143.61926 C 152.00578,146.74923 154.52708,150.55949 155.15073,153.0541"
       id="path4484" />
    <path
       style="fill:none;fill-opacity:0.75;fill-rule:evenodd;stroke:#006600;stroke-width:1px;stroke-linecap:butt;stroke-linejoin:miter;stroke-opacity:1"
       d="M 142.2215,163.53725 C 142.2215,166.90847 144.03354,169.80195 144.66757,172.9721"
       id="path4486" />
    <path
       style="fill:none;fill-opacity:0.75;fill-rule:evenodd;stroke:#006600;stroke-width:1px;stroke-linecap:butt;stroke-linejoin:miter;stroke-opacity:1"
       d="M 157.5968,165.28445 C 157.5968,165.88781 157.65817,165.43787 158.29568,167.03164"
       id="path4488" />
    <path
       style="fill:none;fill-opacity:0.75;fill-rule:evenodd;stroke:#006600;stroke-width:1px;stroke-linecap:butt;stroke-linejoin:miter;stroke-opacity:1"
       d="M 162.48894,139.07655 C 162.48894,144.25295 165.98332,147.31478 165.98332,152.35522"
       id="path4490" />
    <path
       style="fill:none;fill-opacity:0.75;fill-rule:evenodd;stroke:#006600;stroke-width:1px;stroke-linecap:butt;stroke-linejoin:miter;stroke-opacity:1"
       d="M 161.09118,109.02484 C 161.09118,112.54173 162.18714,116.60523 163.18782,119.85743"
       id="path4492" />
    <path
       style="fill:none;fill-opacity:0.75;fill-rule:evenodd;stroke:#006600;stroke-width:1px;stroke-linecap:butt;stroke-linejoin:miter;stroke-opacity:1"
       d="M 143.61926,99.589995 C 143.61926,103.3716 144.27659,107.53361 145.71589,110.77203"
       id="path4494" />
    <path
       style="fill:none;fill-opacity:0.75;fill-rule:evenodd;stroke:#006600;stroke-width:1px;stroke-linecap:butt;stroke-linejoin:miter;stroke-opacity:1"
       d="M 133.1361,97.493364 C 133.1361,103.31797 134.68311,107.82378 135.58217,113.2181"
       id="path4496" />
    <path
       style="fill:none;fill-opacity:0.75;fill-rule:evenodd;stroke:#006600;stroke-width:1px;stroke-linecap:butt;stroke-linejoin:miter;stroke-opacity:1"
       d="M 149.55971,115.31473 C 149.55971,121.26364 153.0541,127.93141 153.0541,134.18441"
       id="path4498" />
    <path
       style="fill:none;fill-opacity:0.75;fill-rule:evenodd;stroke:#006600;stroke-width:1px;stroke-linecap:butt;stroke-linejoin:miter;stroke-opacity:1"
       d="M 140.47431,120.55631 C 140.47431,123.07197 141.72493,126.25768 142.2215,128.24396"
       id="path4500" />
    <path
       style="fill:none;fill-opacity:0.75;fill-rule:evenodd;stroke:#006600;stroke-width:1px;stroke-linecap:butt;stroke-linejoin:miter;stroke-opacity:1"
       d="M 133.1361,126.8462 C 133.1361,129.86621 134.53385,132.90139 134.53385,135.93161"
       id="path4502" />
    <path
       style="fill:none;fill-opacity:0.75;fill-rule:evenodd;stroke:#006600;stroke-width:1px;stroke-linecap:butt;stroke-linejoin:miter;stroke-opacity:1"
       d="M 136.97992,147.81252 C 136.97992,150.54043 138.37768,152.95879 138.37768,155.84961"
       id="path4504" />
    <path
       style="fill:none;fill-opacity:0.75;fill-rule:evenodd;stroke:#006600;stroke-width:1px;stroke-linecap:butt;stroke-linejoin:miter;stroke-opacity:1"
       d="M 124.0507,153.40354 C 124.0507,155.41262 122.99335,157.61486 122.3035,158.99455"
       id="path4506" />
    <path
       style="fill:none;fill-opacity:0.75;fill-rule:evenodd;stroke:#006600;stroke-width:1px;stroke-linecap:butt;stroke-linejoin:miter;stroke-opacity:1"
       d="M 138.02824,80.370873 C 138.02824,84.717321 132.77838,92.268338 131.03947,95.746171"
       id="path4508" />
    <path
       style="fill:none;fill-opacity:0.75;fill-rule:evenodd;stroke:#006600;stroke-width:1px;stroke-linecap:butt;stroke-linejoin:miter;stroke-opacity:1"
       d="M 133.48554,75.828172 C 133.48554,79.322557 128.30066,80.899632 127.19564,84.214698"
       id="path4510" />
    <path
       style="fill:none;fill-opacity:0.75;fill-rule:evenodd;stroke:#006600;stroke-width:1px;stroke-linecap:butt;stroke-linejoin:miter;stroke-opacity:1"
       d="M 143.96869,87.010206 C 142.8066,90.4965 146.13106,96.925956 147.46308,99.589995"
       id="path4512" />
    <path
       style="fill:none;fill-opacity:0.75;fill-rule:evenodd;stroke:#006600;stroke-width:1px;stroke-linecap:butt;stroke-linejoin:miter;stroke-opacity:1"
       d="M 157.94624,84.913575 C 157.44077,86.42999 162.0787,96.004415 162.83838,97.143925"
       id="path4514" />
    <path
       style="fill:none;fill-opacity:0.75;fill-rule:evenodd;stroke:#006600;stroke-width:1px;stroke-linecap:butt;stroke-linejoin:miter;stroke-opacity:1"
       d="M 168.4294,89.106838 C 168.4294,89.106838 168.4294,89.106838 168.4294,89.106838 z "
       id="path4516" />
    <path
       style="fill:none;fill-opacity:0.75;fill-rule:evenodd;stroke:#006600;stroke-width:1px;stroke-linecap:butt;stroke-linejoin:miter;stroke-opacity:1"
       d="M 167.03164,63.597821 C 165.78549,67.336262 168.4294,72.615254 168.4294,76.527049"
       id="path4518" />
    <path
       style="fill:none;fill-opacity:0.75;fill-rule:evenodd;stroke:#006600;stroke-width:1px;stroke-linecap:butt;stroke-linejoin:miter;stroke-opacity:1"
       d="M 157.24736,63.94726 C 156.55735,66.017304 158.52772,70.642536 159.34399,72.683224"
       id="path4520" />
    <path
       style="fill:none;fill-opacity:0.75;fill-rule:evenodd;stroke:#006600;stroke-width:1px;stroke-linecap:butt;stroke-linejoin:miter;stroke-opacity:1"
       d="M 145.01701,60.103436 C 143.61252,64.316895 146.80708,70.408644 147.81252,74.430417"
       id="path4522" />
    <path
       style="fill:none;fill-opacity:0.75;fill-rule:evenodd;stroke:#006600;stroke-width:1px;stroke-linecap:butt;stroke-linejoin:miter;stroke-opacity:1"
       d="M 138.02824,67.092207 C 137.6781,68.14262 138.02824,69.795575 138.02824,70.936032"
       id="path4524" />
    <path
       style="fill:none;fill-opacity:0.75;fill-rule:evenodd;stroke:#006600;stroke-width:1px;stroke-linecap:butt;stroke-linejoin:miter;stroke-opacity:1"
       d="M 143.96869,37.739367 C 142.92084,40.882934 144.70481,45.888165 145.71589,48.921401"
       id="path4526" />
    <path
       style="fill:none;fill-opacity:0.75;fill-rule:evenodd;stroke:#006600;stroke-width:1px;stroke-linecap:butt;stroke-linejoin:miter;stroke-opacity:1"
       d="M 156.89792,40.534875 C 155.71661,44.078807 158.1308,48.987224 159.34399,51.71691"
       id="path4528" />
    <path
       style="fill:none;fill-opacity:0.75;fill-rule:evenodd;stroke:#006600;stroke-width:1px;stroke-linecap:butt;stroke-linejoin:miter;stroke-opacity:1"
       d="M 167.73052,42.980945 C 167.20947,44.544075 170.86593,50.167935 171.57434,51.018033"
       id="path4530" />
    <path
       style="fill:none;fill-opacity:0.75;fill-rule:evenodd;stroke:#006600;stroke-width:1px;stroke-linecap:butt;stroke-linejoin:miter;stroke-opacity:1"
       d="M 168.77883,17.471929 C 167.70779,20.685067 170.85463,31.037521 171.92378,34.244981"
       id="path4532" />
    <path
       style="fill:none;fill-opacity:0.75;fill-rule:evenodd;stroke:#006600;stroke-width:1px;stroke-linecap:butt;stroke-linejoin:miter;stroke-opacity:1"
       d="M 165.28445,11.531473 C 164.47389,13.963148 165.02066,18.86283 165.63389,21.315753"
       id="path4534" />
    <path
       style="fill:none;fill-opacity:0.75;fill-rule:evenodd;stroke:#006600;stroke-width:1px;stroke-linecap:butt;stroke-linejoin:miter;stroke-opacity:1"
       d="M 155.15073,15.375297 C 154.46855,17.421845 157.63086,31.23628 158.29568,33.895542"
       id="path4536" />
    <path
       style="fill:none;fill-opacity:0.75;fill-rule:evenodd;stroke:#006600;stroke-width:1px;stroke-linecap:butt;stroke-linejoin:miter;stroke-opacity:1"
       d="M 165.63389,31.100034 C 165.45587,31.634081 165.63389,32.629651 165.63389,33.196665"
       id="path4538" />
    <path
       style="fill:none;fill-opacity:0.75;fill-rule:evenodd;stroke:#006600;stroke-width:1px;stroke-linecap:butt;stroke-linejoin:miter;stroke-opacity:1"
       d="M 147.11364,19.56856 C 145.93032,23.118518 147.2652,29.260206 148.16196,32.847226"
       id="path4540" />
    <path
       style="fill:none;fill-opacity:0.75;fill-rule:evenodd;stroke:#006600;stroke-width:1px;stroke-linecap:butt;stroke-linejoin:miter;stroke-opacity:1"
       d="M 139.07655,9.4348416 C 137.20726,15.042711 137.6788,25.058611 137.6788,31.100034"
       id="path4542" />
    <path
       style="fill:none;fill-opacity:0.75;fill-rule:evenodd;stroke:#006600;stroke-width:1px;stroke-linecap:butt;stroke-linejoin:miter;stroke-opacity:1"
       d="M 123.70126,17.12249 C 122.65275,20.268006 121.91265,23.748019 125.09901,24.810139"
       id="path4544" />
    <path
       style="fill:none;fill-opacity:0.75;fill-rule:evenodd;stroke:#006600;stroke-width:1px;stroke-linecap:butt;stroke-linejoin:miter;stroke-opacity:1"
       d="M 109.72371,11.531473 C 108.29286,15.824048 109.72371,22.594371 109.72371,27.256209"
       id="path4546" />
    <path
       style="fill:none;fill-opacity:0.75;fill-rule:evenodd;stroke:#006600;stroke-width:1px;stroke-linecap:butt;stroke-linejoin:miter;stroke-opacity:1"
       d="M 100.98775,15.724736 C 99.418402,20.432779 101.68663,26.590499 101.68663,31.449472"
       id="path4548" />
    <path
       style="fill:none;fill-opacity:0.75;fill-rule:evenodd;stroke:#006600;stroke-width:1px;stroke-linecap:butt;stroke-linejoin:miter;stroke-opacity:1"
       d="M 89.456276,13.628105 C 88.136799,17.586536 88.745415,22.761442 87.709083,26.906771"
       id="path4550" />
    <path
       sodipodi:type="arc"
       style="opacity:1;fill:#552200;fill-opacity:1;stroke:#000000;stroke-width:0.30000001;stroke-linecap:square;stroke-linejoin:bevel;stroke-miterlimit:4;stroke-dasharray:none;stroke-opacity:1"
       id="path2265"
       sodipodi:cx="92.077065"
       sodipodi:cy="92.077065"
       sodipodi:rx="74.255699"
       sodipodi:ry="74.255699"
       d="M 166.33276 92.077065 A 74.255699 74.255699 0 1 1  17.821365,92.077065 A 74.255699 74.255699 0 1 1  166.33276 92.077065 z" />
  </g>
</svg>
